<svg xmlns="http://www.w3.org/2000/svg" xmlns:xlink="http://www.w3.org/1999/xlink" width="55" zoomAndPan="magnify" viewBox="0 0 41.25 56.999998" height="76" preserveAspectRatio="xMidYMid meet" version="1.0"><defs><clipPath id="eaff6db7ed"><path d="M 18 14 L 22 14 L 22 56.488281 L 18 56.488281 Z M 18 14 " clip-rule="nonzero"/></clipPath><clipPath id="5336963bb5"><path d="M 20 18 L 21 18 L 21 56.488281 L 20 56.488281 Z M 20 18 " clip-rule="nonzero"/></clipPath><clipPath id="5003fb3b67"><path d="M 18 17 L 22 17 L 22 56.488281 L 18 56.488281 Z M 18 17 " clip-rule="nonzero"/></clipPath></defs><g clip-path="url(#eaff6db7ed)"><path stroke-linecap="butt" transform="matrix(0.155258, -0.107862, 0.107286, 0.156092, -105.977867, -24.30863)" fill-opacity="1" fill="#000000" fill-rule="nonzero" stroke-linejoin="round" d="M 426.36082 544.225532 L 438.428756 552.539661 C 432.583639 556.884065 431.513334 559.197554 429.884731 564.904074 L 335.584492 701.77037 C 325.442324 716.483932 320.424268 722.325787 307.89733 728.98495 C 309.656931 715.26075 312.988151 708.728743 323.545289 693.451071 L 417.845528 556.584775 C 422.422233 553.165698 424.272687 551.616533 426.36082 544.225532 Z M 426.36082 544.225532 " stroke="#000000" stroke-width="1.564" stroke-opacity="1" stroke-miterlimit="4"/></g><g clip-path="url(#5336963bb5)"><path fill="#000000" d="M 20.074219 56.242188 L 20.054688 18.828125 " fill-opacity="1" fill-rule="evenodd"/></g><g clip-path="url(#5003fb3b67)"><path stroke-linecap="butt" transform="matrix(0.155258, -0.107862, 0.107286, 0.156092, -105.977867, -24.30863)" fill="none" stroke-linejoin="miter" d="M 308.149545 728.984058 L 420.166692 566.697348 " stroke="#000000" stroke-width="1.564" stroke-opacity="1" stroke-miterlimit="4"/></g><path stroke-linecap="butt" transform="matrix(0.155258, -0.107862, 0.107286, 0.156092, -105.977867, -24.30863)" fill-opacity="1" fill="#000000" fill-rule="nonzero" stroke-linejoin="round" d="M 462.394473 490.295657 C 465.621028 489.522225 470.568861 492.665985 471.040337 492.966758 C 471.523516 493.250593 475.950994 496.710462 476.293005 500.074963 C 475.977282 502.934906 466.750338 508.89641 464.739143 510.059222 C 462.177134 506.011525 462.031312 505.785632 457.26144 504.641745 C 457.512359 502.713008 459.343625 492.016342 462.394473 490.295657 Z M 462.394473 490.295657 " stroke="#000000" stroke-width="1.564" stroke-opacity="1" stroke-miterlimit="4"/><path stroke-linecap="butt" transform="matrix(0.155258, -0.107862, 0.107286, 0.156092, -105.977867, -24.30863)" fill-opacity="1" fill="#000000" fill-rule="evenodd" stroke-linejoin="miter" d="M 429.68192 542.040937 C 432.453597 546.258544 436.969239 548.352893 439.837187 547.807138 L 465.002007 510.115739 C 463.558511 506.415523 460.44233 504.662593 457.051773 504.471836 Z M 429.68192 542.040937 " stroke="#000000" stroke-width="1.5" stroke-opacity="1" stroke-miterlimit="4"/><path stroke-linecap="butt" transform="matrix(0.155258, -0.107862, 0.107286, 0.156092, -105.977867, -24.30863)" fill-opacity="1" fill="#000000" fill-rule="evenodd" stroke-linejoin="miter" d="M 415.090785 560.462048 C 417.145966 562.257594 419.616261 564.690345 420.049651 566.866724 C 422.398299 566.562731 425.04617 567.791848 427.198103 568.828415 " stroke="#000000" stroke-width="1.564" stroke-opacity="1" stroke-miterlimit="4"/><path stroke-linecap="butt" transform="matrix(0.155258, -0.107862, 0.107286, 0.156092, -105.977867, -24.30863)" fill-opacity="1" fill="#000000" fill-rule="nonzero" stroke-linejoin="round" d="M 430.306653 542.447613 C 433.12836 546.774868 434.832273 547.877225 439.826682 548.951043 C 446.990388 553.876264 455.40783 568.601877 453.826523 569.36104 L 444.923649 571.066949 C 445.199175 561.347316 439.2161 551.181805 429.673719 553.521892 C 428.609456 544.102682 416.966851 541.763212 406.439068 544.473432 L 405.683477 535.517774 C 405.850405 534.256731 423.256822 537.576057 430.306653 542.447613 Z M 405.7207 535.318267 C 418.106853 534.943276 424.814721 536.850769 430.263865 540.616223 M 453.99561 568.351742 C 449.954511 556.650259 445.781119 551.038612 440.349003 547.284926 " stroke="#000000" stroke-width="1.564" stroke-opacity="1" stroke-miterlimit="4"/><path stroke-linecap="butt" transform="matrix(0.155258, -0.107862, 0.107286, 0.156092, -105.977867, -24.30863)" fill-opacity="1" fill="#000000" fill-rule="nonzero" stroke-linejoin="round" d="M 428.953912 541.237567 C 428.79533 541.102959 428.635693 541.042698 428.470732 540.953732 C 428.334504 540.859596 428.180191 540.828039 428.020554 540.767778 C 427.872621 540.690579 427.736393 540.596443 427.600164 540.502307 C 427.435203 540.413341 427.29365 540.2905 427.140393 540.184596 C 426.958403 540.083864 426.81685 539.961023 426.675297 539.838182 C 426.528419 539.686636 426.341105 539.557199 426.182523 539.422591 C 426.012237 539.30492 425.882389 539.165142 425.723807 539.030534 C 425.593958 538.890755 425.434321 538.830494 425.26936 538.741528 C 425.098019 538.698205 424.897945 538.660051 424.72128 538.588023 C 424.556318 538.499057 424.356244 538.460904 424.161495 538.451456 C 423.961421 538.413302 423.778376 538.386916 423.590007 538.331825 C 423.442074 538.254627 423.270733 538.211303 423.1228 538.134104 C 422.939755 538.107718 422.763089 538.03569 422.591748 537.992366 C 422.500226 537.979173 422.420407 537.949042 422.32356 537.907145 C 422.243742 537.877014 422.169248 537.875588 422.089429 537.845457 C 421.924468 537.756492 421.747803 537.684463 421.571137 537.612435 C 421.429584 537.489594 421.234835 537.480146 421.075198 537.419884 C 420.858096 537.369964 420.664401 537.286169 420.459003 537.219311 C 420.299366 537.15905 420.110997 537.103959 419.934331 537.031931 C 419.728933 536.965073 419.534184 536.955624 419.328786 536.888767 C 419.169149 536.828505 418.997808 536.785182 418.832846 536.696216 C 418.695562 536.676426 418.576362 536.594057 418.410346 536.579438 C 418.249654 536.593523 418.113425 536.499387 417.970817 536.450893 C 417.794151 536.378865 417.611106 536.352478 417.439765 536.309155 C 416.345763 536.253889 421.757252 536.614904 417.182226 536.281343 C 416.775699 536.250678 417.966548 536.347842 418.344342 536.383676 L 418.178325 536.369057 L 418.103831 536.367631 C 417.639839 536.347308 417.18755 536.310047 416.735262 536.272786 C 416.718233 536.261019 416.701205 536.249252 416.672472 536.254423 C 416.592653 536.224292 416.518159 536.222866 416.426637 536.209673 L 416.363847 536.19131 L 417.571724 536.30024 L 417.49723 536.298814 C 417.25672 536.282769 416.466018 536.261912 416.003081 536.167242 C 419.169101 536.428067 415.882826 536.159219 415.837064 536.152623 C 415.76257 536.151197 415.602933 536.090936 415.540144 536.072572 C 415.460325 536.042441 415.385831 536.041015 415.306013 536.010885 L 416.596874 535.926905 L 417.065136 536.05028 L 417.13963 536.051706 C 415.920049 535.959713 415.044204 535.880021 417.293943 536.083262 L 417.442931 536.086115 C 414.854779 535.899277 416.973614 536.037087 417.729203 536.108756 C 417.809021 536.138887 417.900544 536.15208 417.963334 536.170443 L 418.037828 536.171869 C 416.772485 536.07328 416.445776 536.072747 416.921473 536.076132 C 417.374817 536.039046 418.364536 536.172403 418.456059 536.185596 C 418.862586 536.21626 416.887416 536.052598 417.282239 536.1002 C 418.75936 536.220005 418.187871 536.100375 418.730627 536.225175 C 418.901968 536.268499 419.090337 536.32359 419.249974 536.383851 C 419.409611 536.444112 419.55222 536.492606 419.718236 536.507225 C 419.85552 536.527015 420.003453 536.604214 420.146061 536.652708 C 420.305698 536.712969 420.460011 536.744526 420.619647 536.804787 C 420.825046 536.871645 421.036824 536.892861 421.230518 536.976656 C 421.407183 537.048684 421.578524 537.092008 421.766894 537.147099 C 421.960588 537.230894 422.165986 537.297752 422.354356 537.352842 C 422.542725 537.407933 422.714066 537.451257 422.867323 537.55716 L 423.39732 537.773245 C 423.556957 537.833506 423.716594 537.893768 423.887935 537.937091 C 424.059276 537.980415 424.242321 538.006801 424.418986 538.078829 C 424.578623 538.139091 424.726556 538.216289 424.897897 538.259613 C 425.069238 538.302937 425.269312 538.34109 425.435328 538.355709 C 425.647106 538.376925 425.835476 538.432015 426.02917 538.515811 C 426.205835 538.587839 426.388881 538.614225 426.565546 538.686253 C 426.730507 538.775219 426.883765 538.881123 427.025318 539.003964 C 427.183899 539.138572 427.302044 539.295288 427.47233 539.412958 C 427.642616 539.530628 427.818226 539.677003 427.965103 539.828549 C 428.106656 539.95139 428.271618 540.040356 428.441903 540.158026 C 428.595161 540.26393 428.748418 540.369833 428.901675 540.475736 C 429.037904 540.569873 429.168808 540.635304 429.328445 540.695566 C 429.471053 540.74406 429.618986 540.821259 429.766918 540.898457 C 429.93188 540.987423 430.085137 541.093327 430.255423 541.210997 Z M 428.953912 541.237567 " stroke="#000000" stroke-width="1.564" stroke-opacity="1" stroke-miterlimit="4"/><path stroke-linecap="butt" transform="matrix(0.155258, -0.107862, 0.107286, 0.156092, -105.977867, -24.30863)" fill-opacity="1" fill="#000000" fill-rule="nonzero" stroke-linejoin="round" d="M 440.453381 548.007711 C 440.560877 548.107018 440.680077 548.189387 440.782248 548.259989 C 440.872716 548.347529 440.963183 548.435069 441.048326 548.493904 C 441.138793 548.581444 441.23564 548.623342 441.297375 548.716052 C 441.370814 548.791825 441.427224 548.855831 441.500663 548.931603 C 441.557073 548.995609 441.625187 549.042677 441.698626 549.11845 C 441.76674 549.165518 441.834854 549.212586 441.908293 549.288359 C 441.964703 549.352365 442.032818 549.399433 442.089228 549.463439 C 442.128609 549.515677 442.191399 549.534041 442.230781 549.58628 C 442.264838 549.609814 442.287191 549.650285 442.309544 549.690757 C 442.382983 549.76653 442.444717 549.85924 442.518156 549.935013 C 442.579891 550.027723 442.665033 550.086558 442.738472 550.162331 C 442.811911 550.238104 442.873646 550.330814 442.93538 550.423525 C 443.008819 550.499297 443.087582 550.603775 443.161021 550.679547 C 443.251488 550.767087 443.313223 550.859798 443.374957 550.952508 L 443.605922 551.237235 C 443.650628 551.318179 443.718743 551.365247 443.803886 551.424082 C 443.889028 551.482917 443.962467 551.55869 444.018877 551.622696 C 444.10402 551.681531 444.189163 551.740366 444.274306 551.799201 C 444.330716 551.863207 444.427563 551.905105 444.495677 551.952173 C 444.592524 551.994071 444.677667 552.052906 444.774514 552.094804 C 444.859657 552.153639 444.927772 552.200707 445.012914 552.259542 L 446.102743 553.012633 C 446.187886 553.071468 446.278353 553.159008 446.351792 553.234781 C 446.430555 553.339258 446.49229 553.431968 446.571053 553.536446 C 446.632788 553.629156 446.717931 553.687991 446.791369 553.763764 C 446.853104 553.856474 446.914839 553.949185 446.964869 554.058832 C 447.031928 554.180247 447.087283 554.3186 447.125609 554.445185 C 447.163936 554.571771 447.21929 554.710123 447.274645 554.848476 C 447.312972 554.975061 447.368326 555.113414 447.44071 555.263533 C 447.485416 555.344476 447.518418 555.442357 447.580152 555.535067 C 447.613154 555.632948 447.686593 555.708721 447.736623 555.818369 C 447.786654 555.928017 447.848388 556.020727 447.927152 556.125204 C 448.022943 556.241449 448.06127 556.368034 448.157061 556.484279 C 448.252853 556.600523 448.331616 556.705 448.439112 556.804307 C 448.512551 556.88008 448.562581 556.989728 448.63602 557.065501 C 448.714783 557.169978 448.788222 557.245751 448.861661 557.321524 C 448.923395 557.414234 449.008538 557.473069 449.064948 557.537075 C 449.109654 557.618018 449.137332 557.687194 449.193742 557.7512 L 448.552029 557.733195 C 448.512647 557.680957 448.467941 557.600013 448.428559 557.547775 L 448.225272 557.332224 C 448.134805 557.244684 448.061366 557.168911 447.999631 557.076201 C 447.937897 556.98349 447.876162 556.89078 447.785695 556.80324 C 447.695227 556.7157 447.599436 556.599456 447.503644 556.483212 C 447.436585 556.361797 447.38123 556.223444 447.273734 556.124137 C 447.206675 556.002722 447.14494 555.910012 447.09491 555.800364 C 447.033175 555.707654 446.971441 555.614944 446.938439 555.517063 C 446.876704 555.424352 446.843703 555.326472 446.798996 555.245528 C 446.726613 555.095409 446.671258 554.957056 446.632932 554.830471 C 446.577577 554.692118 446.522222 554.553766 446.483896 554.427181 C 446.445569 554.300595 446.390215 554.162243 446.323156 554.040828 C 446.261421 553.948117 446.228419 553.850237 446.15498 553.774464 C 446.064513 553.686924 445.991074 553.611151 445.92934 553.518441 C 445.867605 553.425731 445.788842 553.321253 445.698375 553.233713 C 445.613232 553.174878 445.539793 553.099105 445.45465 553.04027 L 444.364821 552.28718 C 444.279678 552.228344 444.194536 552.169509 444.126421 552.122441 C 444.041278 552.063606 443.944431 552.021708 443.847584 551.97981 C 443.77947 551.932742 443.694327 551.873907 443.609184 551.815072 C 443.54107 551.768004 443.467631 551.692231 443.382488 551.633396 C 443.30905 551.557623 443.223907 551.498788 443.155792 551.451719 C 443.07065 551.392884 442.997211 551.317111 442.952505 551.236168 L 442.738568 550.963208 C 442.659805 550.85873 442.598071 550.76602 442.507603 550.67848 C 442.434164 550.602708 442.37243 550.509997 442.293667 550.40552 C 442.231932 550.31281 442.158493 550.237037 442.085055 550.161264 C 442.011616 550.085491 441.955206 550.021485 441.881767 549.945713 C 441.7913 549.858173 441.729565 549.765463 441.667831 549.672752 C 441.594392 549.59698 441.509249 549.538144 441.452839 549.474139 C 441.3794 549.398366 441.311286 549.351298 441.254876 549.287292 C 441.198465 549.223286 441.101618 549.181389 441.045208 549.117383 C 440.977094 549.070315 440.920684 549.006309 440.847245 548.930536 C 440.790835 548.86653 440.717396 548.790758 440.643957 548.714985 C 440.570519 548.639212 440.485376 548.580377 440.400233 548.521542 C 440.309766 548.434002 440.236327 548.358229 440.134155 548.287627 C 440.026659 548.18832 439.907459 548.105951 439.799964 548.006644 Z M 440.453381 548.007711 " stroke="#000000" stroke-width="1.564" stroke-opacity="1" stroke-miterlimit="4"/><path stroke-linecap="butt" transform="matrix(0.155258, -0.107862, 0.107286, 0.156092, -105.977867, -24.30863)" fill-opacity="1" fill="#000000" fill-rule="nonzero" stroke-linejoin="round" d="M 432.495375 539.680729 C 432.6199 539.791803 432.773157 539.897707 432.938118 539.986672 C 432.972176 540.010206 433.034965 540.02857 433.086051 540.063871 C 433.422354 540.196161 433.746952 540.345388 434.07155 540.494615 L 434.265244 540.57841 C 434.396148 540.643842 434.618575 540.722467 434.761183 540.770961 C 435.063429 540.879716 435.35397 541.005409 435.667919 541.097227 C 436.432046 541.374999 437.219582 541.618896 437.995413 541.879731 C 438.577551 542.05677 439.153308 542.279451 439.735446 542.456491 C 439.974901 542.546883 440.243089 542.632104 440.511277 542.717325 C 440.893341 542.856211 441.27008 542.966393 441.663848 543.088341 C 440.070693 542.663127 440.932723 542.90845 441.298813 542.961222 L 441.585085 542.983864 C 441.693636 543.008824 441.796863 543.00508 441.917118 543.013102 L 442.846207 543.37984 C 442.725951 543.371817 442.611021 543.3925 442.502469 543.367539 L 442.187465 543.350068 L 442.033152 543.318512 L 441.895868 543.298722 C 441.118982 543.112234 443.940257 543.835544 440.679453 542.983689 C 440.331446 542.868337 439.98344 542.752985 439.635433 542.637633 C 438.808516 542.341498 437.981599 542.045362 437.148302 541.794868 C 436.384174 541.517096 435.584935 541.290137 434.792075 541.017535 C 434.221641 540.823558 433.668237 540.641349 433.115887 540.384792 C 432.791289 540.235565 432.454987 540.103276 432.11336 539.942281 C 432.062274 539.90698 431.999484 539.888617 431.948398 539.853316 C 431.783437 539.76435 431.641884 539.641509 431.476923 539.552543 Z M 432.495375 539.680729 " stroke="#000000" stroke-width="1.564" stroke-opacity="1" stroke-miterlimit="4"/><path stroke-linecap="butt" transform="matrix(0.155258, -0.107862, 0.107286, 0.156092, -105.977867, -24.30863)" fill-opacity="1" fill="#000000" fill-rule="nonzero" stroke-linejoin="round" d="M 434.978813 536.341713 C 435.115041 536.435849 435.256594 536.55869 435.404527 536.635889 C 435.467317 536.654253 435.518403 536.689554 435.564164 536.69615 C 435.888762 536.845377 436.225064 536.977667 436.554987 537.155599 L 436.748681 537.239394 C 436.891289 537.287888 437.102012 537.38345 437.227592 537.420178 C 437.546866 537.5407 437.849111 537.649456 438.151356 537.758211 C 438.927188 538.019046 439.697695 538.251175 440.461822 538.528948 C 441.060988 538.717754 441.631421 538.911731 442.218883 539.117474 C 442.470043 539.190929 442.738231 539.27615 442.977686 539.366542 C 443.35975 539.505428 443.765222 539.610439 444.147285 539.749325 C 442.548806 539.295406 443.41616 539.569434 443.765222 539.610439 L 444.068522 539.644848 C 444.188777 539.65287 444.292004 539.649126 444.395231 539.645381 L 445.329644 540.040824 C 445.209389 540.032801 445.089133 540.024779 444.968878 540.016756 L 444.665577 539.982347 L 444.516589 539.979495 L 444.373981 539.931001 C 443.602419 539.773218 446.435398 540.47959 443.16289 539.644673 C 442.814883 539.529321 442.466877 539.413969 442.113546 539.269912 C 441.303657 538.985544 440.465036 538.706346 439.643443 538.438915 C 438.850583 538.166313 438.051343 537.939354 437.287216 537.661581 C 436.716783 537.467605 436.146349 537.273628 435.611028 537.028838 C 435.28643 536.879611 434.933099 536.735555 434.608501 536.586328 C 434.545711 536.567964 434.494625 536.532663 434.431836 536.514299 C 434.266874 536.425334 434.125321 536.302493 433.943331 536.20176 Z M 434.978813 536.341713 " stroke="#000000" stroke-width="1.564" stroke-opacity="1" stroke-miterlimit="4"/><path stroke-linecap="butt" transform="matrix(0.155258, -0.107862, 0.107286, 0.156092, -105.977867, -24.30863)" fill-opacity="1" fill="#000000" fill-rule="nonzero" stroke-linejoin="round" d="M 437.25263 533.233226 C 437.377155 533.3443 437.513383 533.438436 437.661316 533.515635 L 437.809249 533.592834 C 438.133847 533.742061 438.453121 533.862583 438.766015 534.028748 L 438.959709 534.112543 L 439.421591 534.28156 C 439.723836 534.390315 439.997349 534.504241 440.299594 534.612997 C 441.029664 534.867235 441.783143 535.087598 442.530241 535.353603 C 443.09535 535.518875 443.637051 535.718022 444.207484 535.911999 L 444.949258 536.1493 C 445.302589 536.293356 445.691033 536.3866 446.056068 536.513719 C 444.537407 536.089931 445.341971 536.345595 445.708061 536.398367 L 445.994333 536.421009 C 446.085856 536.434202 446.189083 536.430457 446.309338 536.43848 L 447.192665 536.798621 C 447.07241 536.790599 446.969183 536.794343 446.848928 536.786321 L 446.562656 536.763679 L 446.408344 536.732122 L 446.27106 536.712333 C 445.539934 536.532441 448.252658 537.230791 445.117434 536.415663 C 444.769427 536.300311 444.438449 536.196727 444.102147 536.064437 C 443.309287 535.791835 442.516427 535.519234 441.728891 535.275337 C 440.981792 535.009332 440.211285 534.777202 439.464187 534.511197 C 438.910782 534.328987 438.374406 534.158544 437.856114 533.925522 C 437.531515 533.776295 437.206917 533.627068 436.899347 533.489608 L 436.734386 533.400642 C 436.569425 533.311676 436.416168 533.205773 436.26291 533.099869 Z M 437.25263 533.233226 " stroke="#000000" stroke-width="1.503" stroke-opacity="1" stroke-miterlimit="4"/><path stroke-linecap="butt" transform="matrix(0.155258, -0.107862, 0.107286, 0.156092, -105.977867, -24.30863)" fill-opacity="1" fill="#000000" fill-rule="nonzero" stroke-linejoin="round" d="M 439.703114 530.196767 C 439.810609 530.296074 439.946838 530.39021 440.094771 530.467409 L 440.225675 530.532841 C 440.544949 530.653363 440.852518 530.790823 441.160088 530.928283 C 441.222878 530.946647 441.273964 530.981948 441.336754 531.000312 C 441.450629 531.053976 441.673056 531.132601 441.781607 531.157561 C 442.066824 531.25455 442.340336 531.368476 442.637257 531.448527 C 443.350299 531.690998 444.06972 531.887826 444.794466 532.11336 C 445.342546 532.266865 445.867218 532.454245 446.415298 532.60775 L 447.140044 532.833284 C 447.48805 532.948636 447.847761 533.04705 448.207472 533.145465 C 446.716488 532.790853 447.527432 533.000874 447.876494 533.04188 C 447.939284 533.060243 448.071243 533.051328 448.145737 533.052754 C 448.254288 533.077714 448.357515 533.07397 448.460742 533.070225 L 449.321716 533.389895 C 449.218489 533.39364 449.08653 533.402555 448.995007 533.389362 L 448.697031 533.383657 C 448.65127 533.377061 448.605509 533.370464 448.559747 533.363868 L 448.422464 533.344078 C 447.696663 533.192892 450.347652 533.798531 447.291191 533.087881 C 446.960213 532.984296 446.646263 532.892478 446.326989 532.771955 C 445.556482 532.539825 444.79768 532.290758 444.015468 532.075565 C 443.285398 531.821327 442.537244 531.629669 441.812498 531.404136 C 441.293151 531.24546 440.756775 531.075017 440.255511 530.853762 C 439.947941 530.716302 439.645696 530.607547 439.338127 530.470086 L 439.190194 530.392888 C 439.025232 530.303922 438.883679 530.181081 438.735747 530.103882 Z M 439.703114 530.196767 " stroke="#000000" stroke-width="1.564" stroke-opacity="1" stroke-miterlimit="4"/><path stroke-linecap="butt" transform="matrix(0.155258, -0.107862, 0.107286, 0.156092, -105.977867, -24.30863)" fill-opacity="1" fill="#000000" fill-rule="nonzero" stroke-linejoin="round" d="M 442.169522 526.845984 C 442.305751 526.94012 442.441979 527.034257 442.572884 527.099688 L 442.720816 527.176887 C 443.011357 527.30258 443.330631 527.423103 443.638201 527.560563 C 443.689287 527.595864 443.752076 527.614227 443.803162 527.649528 C 443.94577 527.698023 444.151169 527.76488 444.265044 527.818545 C 444.550261 527.915534 444.818449 528.000755 445.103666 528.097743 C 445.828411 528.323277 446.547833 528.520106 447.272578 528.745639 C 447.820659 528.899144 448.345331 529.086524 448.881707 529.256967 L 449.618157 529.465563 C 449.954459 529.597852 450.325874 529.679329 450.702613 529.789511 C 449.211629 529.434899 449.993841 529.650091 450.342902 529.691096 C 450.417396 529.692522 450.537652 529.700545 450.629174 529.713738 C 450.732401 529.709994 450.835628 529.706249 450.938854 529.702505 L 451.799829 530.022174 C 451.684898 530.042856 451.564643 530.034834 451.461416 530.038578 L 451.175144 530.015937 C 451.129383 530.00934 451.071917 530.019681 451.026156 530.013085 L 450.900576 529.976357 C 450.163071 529.842108 452.825765 530.43081 449.769303 529.72016 C 449.44365 529.645279 449.112672 529.541695 448.793398 529.421172 C 448.034595 529.172105 447.264088 528.939975 446.493581 528.707845 C 445.751807 528.470544 445.015357 528.261948 444.290611 528.036415 C 443.771264 527.877739 443.234887 527.707297 442.750652 527.497808 C 442.443083 527.360348 442.123809 527.239826 441.816239 527.102366 L 441.668306 527.025167 C 441.503345 526.936201 441.367117 526.842065 441.213859 526.736161 Z M 442.169522 526.845984 " stroke="#000000" stroke-width="1.564" stroke-opacity="1" stroke-miterlimit="4"/><path stroke-linecap="butt" transform="matrix(0.155258, -0.107862, 0.107286, 0.156092, -105.977867, -24.30863)" fill-opacity="1" fill="#000000" fill-rule="nonzero" stroke-linejoin="round" d="M 444.153854 523.537457 C 444.290083 523.631593 444.414607 523.742667 444.56254 523.819866 L 444.705148 523.86836 C 444.995689 523.994053 445.314963 524.114576 445.610829 524.268973 C 445.673619 524.287337 445.724704 524.322638 445.804523 524.352769 C 445.930102 524.389496 446.123796 524.473291 446.249376 524.510018 C 446.534593 524.607007 446.819809 524.703995 447.087998 524.789217 C 447.812743 525.01475 448.549193 525.223346 449.262235 525.465817 C 449.804991 525.590617 450.346691 525.789765 450.883067 525.960207 L 451.590784 526.173974 C 451.95582 526.301093 452.327234 526.38257 452.686945 526.480984 C 451.195961 526.126372 451.995201 526.353331 452.327234 526.38257 C 452.401728 526.383996 452.521984 526.392018 452.613506 526.405211 C 452.716733 526.401467 452.81996 526.397722 452.923186 526.393978 L 453.784161 526.713648 C 453.66923 526.73433 453.566003 526.738074 453.445748 526.730052 L 453.159476 526.70741 C 453.113715 526.700813 453.056249 526.711154 453.010488 526.704558 L 452.884908 526.667831 C 452.164432 526.545349 454.810097 527.122283 451.741931 526.428571 C 451.427982 526.336753 451.097004 526.233168 450.77773 526.112645 C 450.018927 525.863578 449.24842 525.631448 448.477913 525.399318 C 447.753167 525.173784 447.005013 524.982126 446.274943 524.727888 C 445.755596 524.569212 445.236248 524.410537 444.734984 524.189281 C 444.427415 524.051821 444.108141 523.931299 443.800571 523.793839 L 443.640934 523.733578 C 443.475973 523.644612 443.351449 523.533538 443.186487 523.444572 Z M 444.153854 523.537457 " stroke="#000000" stroke-width="1.564" stroke-opacity="1" stroke-miterlimit="4"/><path stroke-linecap="butt" transform="matrix(0.155258, -0.107862, 0.107286, 0.156092, -105.977867, -24.30863)" fill-opacity="1" fill="#000000" fill-rule="nonzero" stroke-linejoin="round" d="M 446.923563 520.221083 C 447.042763 520.303452 447.167288 520.414526 447.298192 520.479957 L 447.4408 520.528452 C 447.714313 520.642378 448.016558 520.751133 448.295395 520.893764 L 448.47206 520.965792 C 448.568907 521.00769 448.774305 521.074547 448.882857 521.099507 C 449.151045 521.184729 449.419233 521.26995 449.687421 521.355171 C 450.378109 521.557171 451.063474 521.730466 451.725429 521.937635 C 452.251157 522.050669 452.7588 522.226282 453.261119 522.373191 L 453.934779 522.563423 C 454.265757 522.667008 454.620143 522.736718 454.962825 522.823365 C 453.556985 522.527588 454.305139 522.719247 454.637172 522.748485 C 454.711666 522.749911 454.831921 522.757933 454.906415 522.759359 L 455.199067 522.736359 L 456.008955 523.020728 C 455.894025 523.04141 455.790798 523.045154 455.687571 523.048899 L 455.418328 523.038024 L 455.26934 523.035172 C 455.240607 523.040342 455.20655 523.016808 455.160789 523.010212 C 454.457341 522.899497 456.966777 523.382295 454.068897 522.806253 C 453.771976 522.726202 453.458027 522.634384 453.17281 522.537396 C 452.448065 522.311862 451.711615 522.103266 450.992193 521.906438 C 450.301505 521.704438 449.587408 521.536314 448.908424 521.317377 C 448.423133 521.182236 447.920814 521.035327 447.453608 520.837606 C 447.151362 520.72885 446.860821 520.603157 446.587309 520.489231 C 446.524519 520.470868 446.490462 520.447334 446.427672 520.42897 C 446.279739 520.351771 446.155215 520.240697 446.007282 520.163499 Z M 446.923563 520.221083 " stroke="#000000" stroke-width="1.564" stroke-opacity="1" stroke-miterlimit="4"/><path stroke-linecap="butt" transform="matrix(0.155258, -0.107862, 0.107286, 0.156092, -105.977867, -24.30863)" fill-opacity="1" fill="#000000" fill-rule="nonzero" stroke-linejoin="round" d="M 449.401676 516.853362 C 449.520876 516.935731 449.628372 517.035038 449.776304 517.112237 L 449.901884 517.148964 C 450.192425 517.274657 450.482966 517.40035 450.756479 517.514276 L 450.933144 517.586304 C 451.04702 517.639969 451.252418 517.706826 451.360969 517.731787 C 451.629157 517.817008 451.897345 517.902229 452.165533 517.987451 C 452.827489 518.194621 453.524558 518.350978 454.203542 518.569915 C 454.717565 518.699886 455.219884 518.846794 455.739232 519.00547 L 456.412892 519.195702 C 456.74387 519.299287 457.098256 519.368997 457.440938 519.455644 C 456.035097 519.159868 456.783251 519.351526 457.098256 519.368997 C 457.189779 519.38219 457.293005 519.378446 457.367499 519.379872 L 457.677179 519.368638 L 458.475364 519.669944 C 458.372137 519.673689 458.26891 519.677433 458.165684 519.681178 L 457.89644 519.670303 L 457.747452 519.667451 C 457.701691 519.660855 457.65593 519.654258 457.638901 519.642491 C 456.935453 519.531776 459.444889 520.014574 456.54701 519.438532 C 456.250089 519.358481 455.93614 519.266663 455.633894 519.157908 C 454.926177 518.944142 454.189727 518.735546 453.453278 518.52695 C 452.779618 518.336717 452.065521 518.168593 451.374832 517.966594 C 450.901246 517.814515 450.398927 517.667606 449.920016 517.486822 C 449.629475 517.361129 449.338934 517.235436 449.036689 517.126681 C 449.002632 517.103147 448.939842 517.084783 448.905785 517.061249 C 448.757852 516.98405 448.633327 516.872977 448.485395 516.795778 Z M 449.401676 516.853362 " stroke="#000000" stroke-width="1.564" stroke-opacity="1" stroke-miterlimit="4"/><path stroke-linecap="butt" transform="matrix(0.155258, -0.107862, 0.107286, 0.156092, -105.977867, -24.30863)" fill-opacity="1" fill="#000000" fill-rule="nonzero" stroke-linejoin="round" d="M 451.403036 513.556602 C 451.522236 513.638971 451.629732 513.738278 451.777665 513.815477 L 451.903245 513.852204 C 452.193786 513.977897 452.484327 514.10359 452.757839 514.217516 L 452.934505 514.289544 C 453.048381 514.343209 453.253779 514.410067 453.36233 514.435027 C 453.630518 514.520248 453.898706 514.60547 454.166894 514.690691 C 454.82885 514.897861 455.525918 515.054218 456.204903 515.273155 C 456.718926 515.403126 457.221245 515.550035 457.740592 515.70871 L 458.414252 515.898942 C 458.74523 516.002527 459.099617 516.072237 459.430594 516.175822 C 458.036458 515.863108 458.784612 516.054766 459.099617 516.072237 C 459.174111 516.073663 459.294366 516.081686 459.36886 516.083112 L 459.67854 516.071878 L 460.476725 516.373185 C 460.373498 516.376929 460.270271 516.380674 460.167044 516.384418 L 459.897801 516.373543 L 459.748813 516.370691 C 459.703052 516.364095 459.65729 516.357498 459.640262 516.345731 C 458.936814 516.235016 461.44625 516.717814 458.54837 516.141772 C 458.25145 516.061721 457.9375 515.969904 457.635255 515.861148 C 456.927538 515.647382 456.191088 515.438786 455.454638 515.23019 C 454.780978 515.039958 454.066881 514.871833 453.376193 514.669834 C 452.902606 514.517755 452.400287 514.370846 451.921377 514.190063 C 451.630836 514.06437 451.340295 513.938677 451.038049 513.829921 C 451.003992 513.806387 450.941202 513.788024 450.907145 513.76449 C 450.759212 513.687291 450.634688 513.576217 450.486755 513.499018 Z M 451.403036 513.556602 " stroke="#000000" stroke-width="1.564" stroke-opacity="1" stroke-miterlimit="4"/><path stroke-linecap="butt" transform="matrix(0.155258, -0.107862, 0.107286, 0.156092, -105.977867, -24.30863)" fill-opacity="1" fill="#000000" fill-rule="nonzero" stroke-linejoin="round" d="M 453.700262 510.41424 C 453.819462 510.496609 453.926958 510.595916 454.074891 510.673115 L 454.200471 510.709842 C 454.491012 510.835535 454.793257 510.94429 455.055066 511.075154 L 455.231731 511.147182 C 455.357311 511.183909 455.562709 511.250767 455.659556 511.292665 C 455.927744 511.377886 456.195932 511.463107 456.46412 511.548329 C 457.13778 511.738561 457.823144 511.911856 458.513833 512.113855 C 459.027856 512.243826 459.518471 512.407672 460.037818 512.566348 L 460.723183 512.739643 C 461.042456 512.860165 461.396843 512.929875 461.739525 513.016522 C 460.333684 512.720746 461.081838 512.912404 461.396843 512.929875 C 461.488365 512.943068 461.591592 512.939324 461.666086 512.94075 L 461.975766 512.929516 L 462.785655 513.213885 C 462.670724 513.234567 462.567497 513.238311 462.46427 513.242056 L 462.195027 513.231181 L 462.046039 513.228329 C 462.000278 513.221733 461.966221 513.198199 461.937488 513.203369 C 461.23404 513.092654 463.743476 513.575452 460.857301 512.982473 C 460.548676 512.919359 460.234726 512.827541 459.932481 512.718786 C 459.224764 512.50502 458.488314 512.296424 457.751864 512.087828 C 457.078204 511.897596 456.375811 511.712534 455.685123 511.510534 C 455.199832 511.375393 454.697513 511.228484 454.230307 511.030763 C 453.939766 510.90507 453.637521 510.796315 453.34698 510.670622 C 453.301218 510.664025 453.250133 510.628724 453.204371 510.622127 C 453.056438 510.544929 452.931914 510.433855 452.783981 510.356656 Z M 453.700262 510.41424 " stroke="#000000" stroke-width="1.564" stroke-opacity="1" stroke-miterlimit="4"/><path stroke-linecap="butt" transform="matrix(0.155258, -0.107862, 0.107286, 0.156092, -105.977867, -24.30863)" fill-opacity="1" fill="#000000" fill-rule="nonzero" stroke-linejoin="round" d="M 456.178375 507.046519 C 456.297575 507.128888 456.405071 507.228195 456.535975 507.293627 L 456.678584 507.342121 C 456.969125 507.467814 457.254341 507.564802 457.533178 507.707433 L 457.709844 507.779461 C 457.835423 507.816188 458.012089 507.888217 458.137669 507.924944 C 458.405857 508.010165 458.674045 508.095387 458.942233 508.180608 C 459.615893 508.37084 460.301257 508.544135 460.991946 508.746134 C 461.505969 508.876105 461.996584 509.039952 462.498902 509.18686 L 463.189591 509.38886 C 463.520569 509.492444 463.874955 509.562154 464.217637 509.648802 C 462.794768 509.341258 463.559951 509.544683 463.874955 509.562154 C 463.949449 509.56358 464.069705 509.571603 464.144199 509.573029 L 464.43685 509.550028 L 465.263767 509.846164 C 465.148837 509.866846 465.04561 509.870591 464.925354 509.862568 L 464.656111 509.851693 L 464.524152 509.860608 C 464.47839 509.854012 464.444333 509.830478 464.398572 509.823881 C 463.712153 509.724933 466.221589 510.207731 463.323709 509.631689 C 463.00976 509.539871 462.712839 509.459821 462.410594 509.351065 C 461.685848 509.125532 460.966427 508.928703 460.229977 508.720107 C 459.539288 508.518108 458.84222 508.361751 458.163235 508.142814 C 457.660917 507.995905 457.175626 507.860763 456.70842 507.663042 C 456.406174 507.554287 456.115633 507.428594 455.825092 507.302901 C 455.779331 507.296304 455.728245 507.261003 455.665455 507.24264 C 455.534551 507.177208 455.392998 507.054367 455.262094 506.988935 Z M 456.178375 507.046519 " stroke="#000000" stroke-width="1.564" stroke-opacity="1" stroke-miterlimit="4"/><path stroke-linecap="butt" transform="matrix(0.155258, -0.107862, 0.107286, 0.156092, -105.977867, -24.30863)" fill-opacity="1" fill="#000000" fill-rule="nonzero" stroke-linejoin="round" d="M 471.160544 492.574342 C 471.031798 492.760655 470.891349 492.963905 470.762603 493.150219 L 463.248543 504.024127 C 463.178318 504.125752 463.119797 504.21044 463.049572 504.312065 L 461.691892 506.276821 L 461.342878 506.636255 L 461.471623 506.449941 L 461.757847 506.072145 L 462.916557 504.395327 L 463.133612 504.044809 L 470.81153 492.933775 Z M 471.160544 492.574342 " stroke="#000000" stroke-width="1.164" stroke-opacity="1" stroke-miterlimit="4"/><path stroke-linecap="butt" transform="matrix(0.155258, -0.107862, 0.107286, 0.156092, -105.977867, -24.30863)" fill-opacity="1" fill="#000000" fill-rule="nonzero" stroke-linejoin="round" d="M 465.817028 508.827059 C 474.808594 501.276462 475.677818 499.399604 473.478877 496.829034 C 472.610372 495.828477 470.923343 493.536571 469.152756 495.516305 L 471.004169 493.091917 L 476.631466 500.458997 C 473.259522 504.610482 470.786445 505.604278 465.817028 508.827059 Z M 465.817028 508.827059 " stroke="#000000" stroke-width="0.764" stroke-opacity="1" stroke-miterlimit="4"/></svg>