<svg xmlns="http://www.w3.org/2000/svg" xmlns:xlink="http://www.w3.org/1999/xlink" width="55" zoomAndPan="magnify" viewBox="0 0 41.25 56.999998" height="76" preserveAspectRatio="xMidYMid meet" version="1.0"><defs><clipPath id="8b87885b4a"><path d="M 6 0.507812 L 35 0.507812 L 35 56 L 6 56 Z M 6 0.507812 " clip-rule="nonzero"/></clipPath><clipPath id="68de541b0a"><path d="M 12.046875 -2.246094 L 49.46875 41.355469 L 28.785156 59.105469 L -8.632812 15.503906 Z M 12.046875 -2.246094 " clip-rule="nonzero"/></clipPath><clipPath id="d672114603"><path d="M 49.390625 41.265625 L 11.972656 -2.332031 L -8.707031 15.417969 L 28.710938 59.015625 Z M 49.390625 41.265625 " clip-rule="nonzero"/></clipPath><clipPath id="db6f24036e"><path d="M 7 1 L 34 1 L 34 55 L 7 55 Z M 7 1 " clip-rule="nonzero"/></clipPath><clipPath id="b1118f69c5"><path d="M 12.046875 -2.246094 L 49.46875 41.355469 L 28.785156 59.105469 L -8.632812 15.503906 Z M 12.046875 -2.246094 " clip-rule="nonzero"/></clipPath><clipPath id="269fba29b9"><path d="M 49.390625 41.265625 L 11.972656 -2.332031 L -8.707031 15.417969 L 28.710938 59.015625 Z M 49.390625 41.265625 " clip-rule="nonzero"/></clipPath></defs><g clip-path="url(#8b87885b4a)"><g clip-path="url(#68de541b0a)"><g clip-path="url(#d672114603)"><path fill="#ffffff" d="M 14.214844 1.246094 C 13.546875 5.726562 15.578125 10.054688 17.738281 13.894531 C 21.515625 20.390625 26.511719 26.226562 32.269531 31.058594 C 32.972656 31.472656 33.535156 32.140625 33.523438 32.992188 C 34.628906 38.644531 34.273438 44.433594 34.210938 50.121094 C 34.070312 51.878906 34.035156 53.828125 32.992188 55.308594 C 32.472656 55.789062 32.445312 55.273438 32.496094 54.785156 C 32.605469 54.265625 32.089844 54.515625 31.8125 54.394531 C 30.925781 54.183594 30.15625 53.6875 29.273438 53.441406 C 29.394531 53.222656 30.171875 52.839844 29.527344 52.859375 C 28.957031 52.722656 28.421875 52.449219 27.972656 52.054688 C 28.476562 51.5625 27.785156 51.695312 27.4375 51.605469 C 24.933594 51.257812 22.460938 50.300781 20.613281 48.503906 C 21.011719 48.394531 21.601562 48.335938 21.898438 48.277344 C 21.171875 48.082031 20.414062 48.042969 19.667969 48.023438 C 20.050781 47.585938 20.574219 47.175781 20.957031 46.796875 C 18.804688 46.121094 16.714844 45.023438 15.234375 43.261719 C 15.78125 43.148438 16.40625 43.007812 16.890625 42.847656 C 15.375 42.289062 14.085938 41.132812 13.296875 39.710938 C 13.664062 39.582031 14.027344 39.484375 14.414062 39.464844 C 12.96875 38.757812 11.574219 37.90625 10.429688 36.765625 C 10.90625 36.101562 11.726562 35.820312 12.519531 35.808594 C 11.972656 35.300781 11.515625 34.703125 11.171875 34.046875 C 11.632812 33.742188 12.175781 33.578125 12.722656 33.566406 C 11.816406 32.660156 11.003906 31.65625 10.3125 30.578125 C 10.933594 30.292969 11.628906 30.195312 12.296875 30.339844 C 10.433594 28.347656 8.8125 26.128906 7.335938 23.84375 C 7.863281 23.507812 8.523438 23.40625 9.132812 23.578125 C 8.140625 22.144531 7.089844 20.730469 6.453125 19.097656 C 7.304688 19.023438 8.179688 19.132812 8.949219 19.527344 C 7.800781 17.441406 6.832031 15.214844 6.542969 12.847656 C 7.261719 13.238281 7.929688 13.707031 8.570312 14.207031 C 7.972656 12.933594 7.433594 11.628906 6.941406 10.308594 C 7.898438 10.578125 8.859375 10.863281 9.710938 11.390625 C 9.066406 9.601562 8.609375 7.765625 8.332031 5.886719 C 9.203125 6.238281 10.21875 6.972656 10.839844 7.382812 C 10.21875 5.0625 9.742188 2.675781 8.675781 0.5 C 10.039062 1.300781 11.496094 2.070312 12.480469 3.351562 C 12.773438 2.203125 13.5625 1.285156 14.300781 0.390625 Z M 14.214844 1.246094 " fill-opacity="1" fill-rule="nonzero"/></g></g></g><g clip-path="url(#db6f24036e)"><g clip-path="url(#b1118f69c5)"><g clip-path="url(#269fba29b9)"><path fill="#000000" d="M 13.617188 2.121094 C 13.164062 6.28125 15.609375 11.867188 19.265625 17.324219 C 23.082031 23.035156 28.230469 28.59375 32.847656 32.167969 C 33.6875 36.382812 33.871094 39.742188 33.78125 43.546875 C 33.742188 45.171875 33.804688 47.710938 33.699219 49.988281 C 33.644531 51.128906 33.546875 52.203125 33.375 53.058594 C 33.269531 53.597656 33.125 54.035156 32.960938 54.355469 C 32.816406 49.671875 33.0625 44.84375 32.597656 39.9375 C 32.601562 39.933594 32.605469 39.933594 32.609375 39.933594 L 32.597656 39.914062 C 32.382812 37.632812 32.007812 35.335938 31.371094 33.027344 L 31.351562 32.964844 L 31.300781 32.921875 C 29.011719 31.160156 26.445312 28.617188 23.972656 25.71875 L 23.980469 25.707031 C 23.96875 25.699219 23.957031 25.691406 23.945312 25.683594 C 21.480469 22.792969 19.113281 19.550781 17.199219 16.378906 C 15.28125 13.195312 13.824219 10.082031 13.183594 7.484375 C 12.621094 5.183594 12.703125 3.320312 13.617188 2.121094 Z M 11.90625 3.4375 C 11.953125 3.492188 12 3.546875 12.042969 3.601562 C 12.238281 3.851562 12.386719 4.109375 12.46875 4.351562 C 12.398438 5.3125 12.527344 6.402344 12.8125 7.574219 C 13.46875 10.238281 14.941406 13.371094 16.875 16.574219 C 18.683594 19.578125 20.894531 22.636719 23.214844 25.410156 C 22.960938 25.363281 22.699219 25.351562 22.449219 25.363281 C 22.1875 25.371094 21.941406 25.40625 21.730469 25.449219 C 21.523438 25.492188 21.363281 25.539062 21.242188 25.605469 C 18.378906 22.289062 15.117188 16.96875 12.921875 11.898438 C 12.003906 9.78125 11.425781 7.640625 10.945312 5.773438 C 10.527344 4.15625 10.183594 2.765625 9.75 1.726562 C 9.753906 1.730469 9.757812 1.730469 9.761719 1.734375 C 10.03125 1.890625 10.390625 2.117188 10.761719 2.394531 C 11.167969 2.699219 11.578125 3.058594 11.90625 3.4375 Z M 11.3125 8.539062 C 11.65625 9.679688 12.0625 10.863281 12.574219 12.042969 C 14.953125 17.539062 18.546875 23.296875 21.601562 26.578125 L 21.667969 26.519531 C 21.976562 26.9375 22.289062 27.394531 22.609375 27.875 C 22.1875 27.757812 21.777344 27.738281 21.441406 27.769531 C 21.203125 27.792969 21.003906 27.839844 20.851562 27.898438 C 20.773438 27.925781 20.710938 27.953125 20.652344 27.992188 C 20.617188 28.019531 20.574219 28.050781 20.546875 28.101562 C 17.316406 24.644531 10.410156 15.109375 9.003906 6.804688 C 9.773438 7.191406 10.808594 8.007812 11.3125 8.539062 Z M 30.972656 33.148438 C 29.09375 32.980469 28.640625 32.558594 27.703125 32.511719 L 27.453125 32.5 L 27.507812 32.742188 C 27.527344 32.839844 27.554688 32.933594 27.582031 33.027344 C 26.363281 32.308594 25.335938 31.125 24.40625 29.839844 C 23.417969 28.472656 22.546875 27.007812 21.648438 25.875 C 21.710938 25.855469 21.734375 25.839844 21.8125 25.824219 C 22 25.785156 22.230469 25.753906 22.472656 25.746094 C 22.917969 25.726562 23.394531 25.796875 23.691406 25.976562 C 26.136719 28.84375 28.679688 31.367188 30.972656 33.148438 Z M 31.109375 33.542969 C 31.265625 34.148438 31.410156 34.757812 31.535156 35.359375 C 29.621094 35.144531 28.375 34.117188 27.972656 32.941406 C 28.675781 33.054688 29.289062 33.402344 31.109375 33.542969 Z M 31.613281 35.753906 C 31.730469 36.355469 31.835938 36.949219 31.925781 37.550781 C 31.90625 37.546875 31.910156 37.550781 31.890625 37.546875 C 31.75 37.523438 31.558594 37.488281 31.335938 37.441406 C 30.886719 37.34375 30.304688 37.195312 29.726562 36.992188 C 29.148438 36.789062 28.570312 36.53125 28.140625 36.21875 C 27.773438 35.953125 27.535156 35.660156 27.441406 35.339844 C 28.046875 35.222656 28.945312 35.105469 29.347656 35.070312 C 29.972656 35.425781 30.738281 35.671875 31.613281 35.753906 Z M 10.230469 12.449219 C 13.015625 19.515625 18.1875 26.261719 20.648438 28.753906 L 20.722656 28.675781 C 21.113281 29.414062 21.582031 30.121094 22.097656 30.78125 C 21.671875 30.832031 21.207031 30.867188 20.777344 30.96875 C 16.273438 26.316406 10.714844 18.648438 7.789062 11.101562 C 8.527344 11.316406 9.691406 11.804688 10.222656 12.453125 Z M 31.980469 37.945312 C 32.058594 38.527344 32.128906 39.105469 32.1875 39.683594 C 31.949219 39.734375 31.589844 39.722656 31.167969 39.640625 C 30.597656 39.523438 29.921875 39.292969 29.277344 39.007812 C 28.632812 38.722656 28.015625 38.378906 27.5625 38.054688 C 27.335938 37.894531 27.152344 37.734375 27.027344 37.597656 C 26.953125 37.511719 26.941406 37.460938 26.910156 37.398438 C 27.414062 37.171875 27.722656 37.097656 28.757812 37.011719 C 29.03125 37.140625 29.320312 37.253906 29.605469 37.355469 C 30.207031 37.566406 30.800781 37.714844 31.257812 37.8125 C 31.488281 37.863281 31.683594 37.902344 31.832031 37.925781 C 31.910156 37.9375 31.933594 37.941406 31.980469 37.945312 Z M 28.839844 34.730469 C 28.585938 34.761719 28.300781 34.804688 28.011719 34.847656 C 27.96875 34.839844 27.933594 34.832031 27.914062 34.832031 C 27.890625 34.832031 27.894531 34.832031 27.882812 34.828125 C 25.628906 34.042969 22.515625 31.40625 20.945312 28.273438 C 20.960938 28.269531 20.96875 28.261719 20.988281 28.253906 C 21.097656 28.214844 21.273438 28.171875 21.484375 28.152344 C 21.894531 28.113281 22.441406 28.160156 22.964844 28.410156 C 23.328125 28.957031 23.703125 29.515625 24.097656 30.0625 C 25.140625 31.511719 26.332031 32.867188 27.835938 33.59375 C 28.070312 34.015625 28.410156 34.402344 28.835938 34.730469 Z M 32.226562 40.074219 C 32.289062 40.734375 32.332031 41.390625 32.371094 42.046875 C 32.1875 42.085938 31.789062 42.054688 31.324219 41.933594 C 30.851562 41.8125 30.296875 41.613281 29.765625 41.375 C 29.230469 41.136719 28.714844 40.855469 28.3125 40.574219 C 27.988281 40.347656 27.773438 40.128906 27.648438 39.945312 C 28.035156 39.707031 28.671875 39.410156 29.183594 39.382812 C 29.832031 39.664062 30.507812 39.894531 31.101562 40.015625 C 31.523438 40.101562 31.910156 40.136719 32.226562 40.074219 Z M 27.226562 34.980469 C 27.207031 34.984375 27.183594 34.988281 27.164062 34.992188 L 27 35.027344 L 27.019531 35.199219 C 27.050781 35.496094 27.175781 35.761719 27.363281 36 C 27.191406 35.949219 26.992188 35.886719 26.75 35.804688 C 26.113281 35.578125 25.269531 35.234375 24.410156 34.800781 C 22.753906 33.964844 21.050781 32.773438 20.484375 31.472656 C 20.996094 31.269531 21.71875 31.226562 22.375 31.128906 C 23.84375 32.898438 25.648438 34.289062 27.226562 34.980469 Z M 28.152344 36.683594 C 27.421875 36.761719 27.09375 36.863281 26.558594 37.121094 L 26.433594 37.179688 L 26.453125 37.316406 C 26.476562 37.511719 26.589844 37.679688 26.746094 37.847656 C 26.898438 38.019531 27.105469 38.195312 27.347656 38.367188 C 27.402344 38.410156 27.464844 38.449219 27.523438 38.492188 C 27.332031 38.453125 27.128906 38.410156 26.90625 38.355469 C 26.230469 38.191406 25.429688 37.953125 24.636719 37.660156 C 23.140625 37.109375 21.679688 36.351562 21.035156 35.621094 C 21.6875 35.101562 22.535156 34.851562 23.675781 34.84375 C 23.863281 34.945312 24.054688 35.046875 24.242188 35.140625 C 25.125 35.585938 25.976562 35.9375 26.628906 36.167969 C 26.957031 36.28125 27.234375 36.367188 27.441406 36.421875 C 27.546875 36.449219 27.628906 36.46875 27.699219 36.480469 C 27.734375 36.484375 27.765625 36.488281 27.796875 36.488281 C 27.820312 36.492188 27.839844 36.492188 27.871094 36.488281 C 27.886719 36.5 27.902344 36.515625 27.921875 36.527344 C 27.996094 36.582031 28.074219 36.632812 28.152344 36.683594 Z M 9.328125 15.488281 C 12.386719 21.546875 16.703125 27.273438 20.371094 31.089844 C 20.289062 31.121094 20.210938 31.15625 20.136719 31.195312 L 19.992188 31.269531 L 20.046875 31.425781 C 20.238281 31.980469 20.601562 32.492188 21.058594 32.960938 C 20.234375 32.4375 19.308594 31.699219 18.339844 30.800781 C 16.757812 29.335938 15.0625 27.457031 13.484375 25.425781 C 10.417969 21.492188 7.808594 16.980469 7.238281 13.867188 C 7.421875 13.984375 7.675781 14.160156 7.945312 14.367188 C 8.5 14.785156 9.117188 15.304688 9.320312 15.496094 Z M 32.394531 42.433594 C 32.425781 43.027344 32.449219 43.625 32.464844 44.21875 C 31.578125 44.210938 30.679688 43.9375 29.78125 43.5 L 29.773438 43.449219 C 29.75 43.453125 29.722656 43.457031 29.699219 43.460938 C 29.0625 43.144531 28.421875 42.75 27.789062 42.316406 C 27.960938 42.148438 28.121094 41.976562 28.292969 41.863281 C 28.523438 41.714844 28.820312 41.613281 29.371094 41.609375 C 29.453125 41.648438 29.535156 41.683594 29.613281 41.71875 C 30.164062 41.96875 30.734375 42.171875 31.234375 42.300781 C 31.695312 42.421875 32.085938 42.484375 32.394531 42.433594 Z M 28.578125 39.09375 C 28.050781 39.238281 27.554688 39.507812 27.257812 39.71875 L 27.132812 39.808594 L 27.191406 39.949219 C 27.332031 40.289062 27.667969 40.589844 28.097656 40.890625 C 28.101562 40.890625 28.105469 40.890625 28.105469 40.894531 C 26.378906 40.832031 24.929688 40.191406 23.582031 39.5 C 22.195312 38.785156 20.925781 38.019531 19.585938 37.847656 C 19.8125 37.570312 20.125 37.375 20.492188 37.226562 C 20.9375 37.042969 21.433594 36.921875 21.875 36.796875 C 22.628906 37.261719 23.570312 37.675781 24.511719 38.023438 C 25.320312 38.320312 26.125 38.5625 26.816406 38.726562 C 27.464844 38.886719 28 38.980469 28.367188 38.984375 C 28.4375 39.023438 28.507812 39.058594 28.578125 39.09375 Z M 32.476562 44.597656 C 32.488281 45.097656 32.492188 45.597656 32.5 46.097656 C 30.820312 45.988281 29.113281 45.785156 28.019531 44.582031 C 28.035156 44.5625 28.027344 44.578125 28.066406 44.539062 C 28.144531 44.464844 28.269531 44.371094 28.433594 44.277344 C 28.722656 44.109375 29.132812 43.945312 29.625 43.863281 C 30.558594 44.3125 31.511719 44.597656 32.476562 44.597656 Z M 23.058594 34.492188 C 22.511719 34.539062 22.015625 34.652344 21.578125 34.835938 C 19.636719 34.035156 16.390625 31.148438 13.472656 27.972656 C 10.660156 24.914062 8.136719 21.578125 7.238281 19.605469 C 7.863281 19.605469 8.867188 19.871094 9.710938 20.65625 L 9.726562 20.636719 C 10.734375 22.320312 11.921875 24.035156 13.183594 25.65625 C 14.777344 27.703125 16.480469 29.597656 18.078125 31.078125 C 19.675781 32.5625 21.160156 33.632812 22.359375 34.039062 C 22.585938 34.195312 22.820312 34.347656 23.058594 34.492188 Z M 28.738281 41.28125 C 28.46875 41.339844 28.257812 41.429688 28.085938 41.542969 C 27.789062 41.734375 27.601562 41.972656 27.347656 42.191406 L 27.160156 42.351562 L 27.363281 42.492188 C 27.605469 42.660156 27.847656 42.824219 28.089844 42.980469 C 26.199219 42.652344 25.023438 42.199219 24.070312 41.765625 C 23.0625 41.3125 22.273438 40.878906 21.175781 40.640625 C 21.203125 40.613281 21.191406 40.617188 21.234375 40.585938 C 21.375 40.480469 21.585938 40.367188 21.835938 40.261719 C 22.3125 40.054688 22.917969 39.886719 23.4375 39.851562 C 24.941406 40.625 26.644531 41.363281 28.722656 41.273438 C 28.730469 41.277344 28.734375 41.28125 28.738281 41.28125 Z M 32.507812 46.480469 C 32.515625 47.234375 32.515625 47.984375 32.515625 48.734375 C 32.253906 48.746094 31.867188 48.707031 31.425781 48.613281 C 30.871094 48.496094 30.234375 48.304688 29.617188 48.058594 C 29 47.8125 28.40625 47.515625 27.949219 47.191406 C 27.550781 46.910156 27.296875 46.613281 27.175781 46.339844 C 27.214844 46.324219 27.246094 46.308594 27.304688 46.289062 C 27.484375 46.230469 27.734375 46.164062 28 46.101562 C 28.265625 46.042969 28.542969 45.992188 28.773438 45.953125 C 29.003906 45.914062 29.203125 45.894531 29.253906 45.894531 C 30.261719 46.308594 31.417969 46.410156 32.507812 46.480469 Z M 29.097656 43.585938 C 28.761719 43.683594 28.472656 43.8125 28.242188 43.945312 C 28.058594 44.050781 27.910156 44.15625 27.800781 44.261719 C 27.691406 44.363281 27.605469 44.4375 27.59375 44.601562 L 27.589844 44.679688 L 27.640625 44.742188 C 27.777344 44.902344 27.925781 45.046875 28.078125 45.179688 C 26.894531 45.328125 25.605469 44.855469 24.34375 44.332031 C 23.074219 43.808594 21.855469 43.234375 20.773438 43.296875 C 20.789062 43.273438 20.792969 43.265625 20.8125 43.242188 C 20.949219 43.078125 21.183594 42.863281 21.46875 42.667969 C 22.035156 42.28125 22.8125 41.960938 23.519531 42.058594 L 23.535156 41.941406 C 23.664062 42 23.78125 42.054688 23.917969 42.117188 C 25.03125 42.617188 26.46875 43.15625 28.933594 43.496094 C 28.988281 43.527344 29.042969 43.554688 29.097656 43.585938 Z M 21.148438 35.058594 C 20.957031 35.171875 20.777344 35.304688 20.613281 35.453125 L 20.488281 35.570312 L 20.589844 35.707031 C 20.710938 35.867188 20.855469 36.027344 21.027344 36.179688 C 15.730469 33.804688 11.628906 29.453125 8.097656 24.078125 C 8.257812 24.011719 8.441406 23.980469 8.683594 24.011719 C 9.015625 24.050781 9.421875 24.179688 9.890625 24.386719 L 9.902344 24.359375 C 10.890625 25.621094 12.015625 26.949219 13.195312 28.234375 C 16 31.285156 19.050781 34.058594 21.148438 35.058594 Z M 32.519531 49.121094 C 32.519531 49.804688 32.523438 50.492188 32.527344 51.175781 C 31.804688 51.082031 30.871094 50.867188 30.03125 50.558594 C 29.160156 50.238281 28.410156 49.800781 28.089844 49.378906 C 28.117188 49.332031 28.167969 49.269531 28.285156 49.195312 C 28.445312 49.097656 28.675781 48.996094 28.925781 48.917969 C 29.402344 48.761719 29.957031 48.667969 30.160156 48.660156 C 30.570312 48.796875 30.980469 48.910156 31.351562 48.988281 C 31.800781 49.082031 32.199219 49.132812 32.519531 49.121094 Z M 21.082031 36.617188 C 20.835938 36.6875 20.585938 36.765625 20.339844 36.867188 C 20.03125 36.996094 19.730469 37.164062 19.480469 37.394531 C 16.339844 36.5 12.785156 33.324219 11.125 30.867188 C 11.359375 30.804688 11.574219 30.757812 11.824219 30.777344 C 12.167969 30.804688 12.617188 30.933594 13.335938 31.261719 L 13.34375 31.246094 C 15.632812 33.507812 18.175781 35.351562 21.082031 36.617188 Z M 28.636719 45.585938 C 28.414062 45.625 28.160156 45.671875 27.914062 45.726562 C 27.640625 45.789062 27.378906 45.859375 27.179688 45.925781 C 27.078125 45.957031 26.992188 45.988281 26.921875 46.023438 C 26.886719 46.042969 26.855469 46.058594 26.820312 46.089844 C 26.789062 46.117188 26.738281 46.160156 26.730469 46.257812 L 26.726562 46.289062 L 26.738281 46.324219 C 26.867188 46.769531 27.238281 47.15625 27.730469 47.503906 C 27.769531 47.53125 27.8125 47.558594 27.855469 47.585938 C 25.691406 47.453125 23.066406 46.496094 21.234375 45.210938 C 21.867188 44.78125 22.914062 44.464844 23.53125 44.539062 L 23.546875 44.417969 C 23.761719 44.507812 23.976562 44.597656 24.203125 44.6875 C 25.585938 45.265625 27.078125 45.824219 28.496094 45.496094 C 28.542969 45.527344 28.589844 45.558594 28.636719 45.585938 Z M 22.851562 39.546875 C 22.628906 39.589844 22.410156 39.648438 22.195312 39.714844 C 20.675781 39.675781 18.375 38.902344 16.3125 37.816406 C 14.324219 36.769531 12.5625 35.421875 11.886719 34.257812 C 11.984375 34.207031 12.128906 34.148438 12.34375 34.113281 C 12.636719 34.066406 13.011719 34.058594 13.421875 34.085938 C 15.125 35.671875 17.207031 37.097656 19.203125 37.710938 C 19.160156 37.777344 19.117188 37.839844 19.078125 37.914062 L 18.941406 38.179688 L 19.242188 38.195312 C 20.402344 38.253906 21.566406 38.871094 22.851562 39.546875 Z M 32.527344 51.558594 C 32.527344 51.839844 32.53125 52.117188 32.535156 52.394531 C 31.976562 52.394531 31.296875 52.480469 30.613281 52.46875 C 29.898438 52.453125 29.207031 52.324219 28.660156 51.933594 C 28.867188 51.585938 29.367188 51.285156 30.292969 51.050781 C 31.066406 51.304688 31.875 51.476562 32.527344 51.558594 Z M 29.414062 48.386719 C 29.21875 48.433594 29.011719 48.484375 28.804688 48.550781 C 28.539062 48.640625 28.28125 48.742188 28.078125 48.871094 C 27.894531 48.984375 27.738281 49.125 27.691406 49.320312 C 26.339844 49.363281 25.125 48.925781 23.960938 48.46875 C 22.90625 48.054688 21.894531 47.644531 20.863281 47.585938 C 21.050781 47.414062 21.207031 47.265625 21.449219 47.0625 C 21.816406 46.746094 22.226562 46.453125 22.433594 46.386719 C 24.339844 47.382812 26.617188 48.023438 28.503906 47.988281 L 28.5 47.96875 C 28.792969 48.121094 29.097656 48.261719 29.414062 48.386719 Z M 32.542969 52.777344 C 32.546875 53.175781 32.554688 53.574219 32.5625 53.972656 C 31.578125 53.953125 31.027344 53.535156 30.246094 53.25 C 30.292969 53.210938 30.351562 53.167969 30.429688 53.125 C 30.589844 53.039062 30.8125 52.953125 31.066406 52.84375 C 31.621094 52.828125 32.136719 52.78125 32.542969 52.777344 Z M 21.410156 40.03125 C 21.253906 40.109375 21.117188 40.191406 21.003906 40.273438 C 20.824219 40.40625 20.675781 40.53125 20.65625 40.742188 L 20.640625 40.917969 L 20.820312 40.949219 C 21.5 41.066406 22.042969 41.265625 22.589844 41.503906 C 19.195312 41.035156 13.683594 39.121094 11.15625 36.746094 C 11.207031 36.695312 11.273438 36.644531 11.367188 36.597656 C 11.527344 36.511719 11.738281 36.4375 11.976562 36.390625 C 12.433594 36.296875 12.96875 36.285156 13.339844 36.371094 C 14.144531 37.007812 15.113281 37.617188 16.136719 38.152344 C 17.921875 39.09375 19.859375 39.808594 21.410156 40.03125 Z M 22.191406 41.859375 C 21.84375 41.988281 21.523438 42.164062 21.25 42.355469 C 20.953125 42.554688 20.714844 42.769531 20.546875 42.960938 C 18.941406 42.753906 16.070312 42.90625 14.105469 40.019531 C 14.117188 40.015625 14.113281 40.015625 14.125 40.011719 C 14.246094 39.988281 14.40625 39.972656 14.582031 39.964844 C 14.9375 39.949219 15.367188 39.964844 15.730469 40.03125 C 17.664062 40.867188 20.253906 41.609375 22.191406 41.863281 Z M 29.675781 50.824219 C 29.316406 50.945312 29.015625 51.082031 28.78125 51.242188 C 26.460938 51.0625 23.773438 50.449219 21.785156 48.820312 C 21.882812 48.804688 21.964844 48.792969 22.085938 48.777344 C 22.480469 48.722656 22.953125 48.664062 23.3125 48.621094 C 23.484375 48.6875 23.652344 48.753906 23.832031 48.824219 C 25.035156 49.296875 26.347656 49.777344 27.84375 49.699219 C 28.238281 50.164062 28.914062 50.527344 29.675781 50.824219 Z M 22.914062 44.164062 C 22.152344 44.253906 21.296875 44.601562 20.761719 45.0625 L 20.582031 45.214844 L 20.773438 45.363281 C 21.15625 45.644531 21.574219 45.910156 22.011719 46.160156 C 21.875 46.238281 21.730469 46.339844 21.589844 46.449219 C 21.085938 46.335938 20.054688 45.988281 18.992188 45.46875 C 17.957031 44.964844 16.90625 44.296875 16.21875 43.5625 C 16.582031 43.472656 16.953125 43.375 17.300781 43.28125 C 17.753906 43.164062 18.167969 43.085938 18.429688 43.128906 L 18.433594 43.105469 C 19.152344 43.226562 19.804688 43.269531 20.3125 43.324219 C 20.304688 43.359375 20.292969 43.398438 20.292969 43.4375 C 20.289062 43.5 20.304688 43.574219 20.355469 43.632812 L 20.429688 43.71875 L 20.535156 43.699219 C 21.191406 43.578125 22.011719 43.820312 22.914062 44.164062 Z M 22.914062 44.164062 " fill-opacity="1" fill-rule="nonzero"/></g></g></g></svg>