<svg xmlns="http://www.w3.org/2000/svg" xmlns:xlink="http://www.w3.org/1999/xlink" width="55" zoomAndPan="magnify" viewBox="0 0 41.25 56.999998" height="76" preserveAspectRatio="xMidYMid meet" version="1.0"><defs><clipPath id="3ae156a7a2"><path d="M 5.707031 14.652344 L 35.171875 14.652344 L 35.171875 42.640625 L 5.707031 42.640625 Z M 5.707031 14.652344 " clip-rule="nonzero"/></clipPath></defs><g clip-path="url(#3ae156a7a2)"><path fill="#000000" d="M 20.4375 14.660156 L 19.972656 18.710938 L 20.320312 18.144531 L 20.320312 22.089844 C 10.964844 20.734375 9.863281 30.65625 6.371094 30.722656 L 6.175781 30.730469 C 5.917969 30.738281 5.707031 30.9375 5.707031 31.179688 C 5.707031 31.277344 5.75 31.371094 5.828125 31.4375 C 5.90625 31.503906 6.011719 31.542969 6.117188 31.53125 C 6.328125 31.507812 6.53125 31.464844 6.726562 31.402344 C 6.785156 31.386719 6.84375 31.367188 6.898438 31.347656 L 20.027344 38.976562 C 19.5625 40.96875 19.691406 41.699219 19.691406 41.699219 C 19.972656 41.714844 20.199219 41.910156 20.324219 42.050781 L 20.324219 42.632812 L 20.558594 42.632812 L 20.558594 42.050781 C 20.683594 41.910156 20.910156 41.714844 21.191406 41.699219 C 21.191406 41.699219 21.316406 40.96875 20.855469 38.976562 C 22.753906 37.875 31.789062 32.621094 33.984375 31.347656 C 34.226562 31.4375 34.488281 31.5 34.761719 31.53125 C 34.867188 31.542969 34.972656 31.503906 35.050781 31.4375 C 35.128906 31.371094 35.171875 31.277344 35.171875 31.179688 C 35.171875 30.9375 34.960938 30.742188 34.699219 30.730469 L 34.503906 30.722656 C 31.011719 30.65625 29.914062 20.730469 20.554688 22.089844 L 20.554688 18.140625 L 20.902344 18.707031 Z M 7.183594 31.230469 C 10.484375 29.71875 11.824219 23.417969 20.324219 23.089844 L 20.324219 37.824219 C 20.234375 38.152344 20.15625 38.453125 20.085938 38.734375 Z M 33.695312 31.230469 L 20.796875 38.730469 C 20.726562 38.449219 20.644531 38.148438 20.558594 37.820312 L 20.558594 23.085938 C 29.054688 23.417969 30.394531 29.71875 33.695312 31.230469 Z M 33.695312 31.230469 " fill-opacity="1" fill-rule="nonzero"/></g></svg>