<svg xmlns="http://www.w3.org/2000/svg" xmlns:xlink="http://www.w3.org/1999/xlink" width="55" zoomAndPan="magnify" viewBox="0 0 41.25 56.999998" height="76" preserveAspectRatio="xMidYMid meet" version="1.0"><defs><clipPath id="e7670aba08"><path d="M 9.242188 15.65625 L 31.335938 15.65625 L 31.335938 41.339844 L 9.242188 41.339844 Z M 9.242188 15.65625 " clip-rule="nonzero"/></clipPath></defs><g clip-path="url(#e7670aba08)"><path fill="#000000" d="M 29.601562 29.199219 C 29.347656 29.167969 29.117188 29.351562 29.085938 29.605469 L 28.957031 30.710938 C 28.925781 30.964844 29.109375 31.199219 29.363281 31.230469 C 29.382812 31.230469 29.402344 31.230469 29.417969 31.230469 C 29.652344 31.230469 29.855469 31.058594 29.882812 30.820312 L 30.011719 29.714844 C 30.042969 29.460938 29.859375 29.226562 29.601562 29.199219 Z M 29.878906 26.832031 L 29.636719 25.746094 C 29.582031 25.496094 29.332031 25.335938 29.082031 25.390625 C 28.832031 25.445312 28.671875 25.695312 28.730469 25.949219 L 28.96875 27.035156 C 29.023438 27.285156 29.273438 27.445312 29.523438 27.386719 C 29.773438 27.332031 29.933594 27.082031 29.878906 26.832031 Z M 28.675781 22.808594 L 28.121094 21.84375 C 27.992188 21.621094 27.707031 21.546875 27.484375 21.675781 C 27.332031 21.761719 27.25 21.917969 27.25 22.078125 C 27.25 22.15625 27.269531 22.238281 27.3125 22.308594 L 27.871094 23.273438 C 27.996094 23.496094 28.28125 23.574219 28.503906 23.445312 C 28.65625 23.355469 28.738281 23.203125 28.738281 23.039062 C 28.738281 22.960938 28.71875 22.882812 28.675781 22.808594 Z M 28.433594 35.042969 C 28.679688 35.117188 28.9375 34.980469 29.015625 34.734375 L 29.34375 33.671875 C 29.417969 33.425781 29.28125 33.164062 29.035156 33.089844 C 28.988281 33.074219 28.941406 33.066406 28.898438 33.066406 C 28.699219 33.066406 28.515625 33.195312 28.453125 33.398438 L 28.125 34.460938 C 28.050781 34.707031 28.1875 34.964844 28.433594 35.042969 Z M 26.105469 19.496094 L 25.21875 18.824219 C 25.015625 18.667969 24.722656 18.707031 24.566406 18.914062 C 24.410156 19.117188 24.449219 19.410156 24.65625 19.566406 L 25.542969 20.238281 C 25.746094 20.394531 26.039062 20.355469 26.195312 20.148438 C 26.347656 19.941406 26.308594 19.652344 26.105469 19.496094 Z M 21.175781 17.460938 L 19.402344 17.460938 C 18.992188 17.460938 18.660156 17.792969 18.660156 18.203125 C 18.660156 18.613281 18.992188 18.945312 19.402344 18.945312 L 21.175781 18.945312 C 21.585938 18.945312 21.917969 18.613281 21.917969 18.203125 C 21.917969 17.792969 21.585938 17.460938 21.175781 17.460938 Z M 16.011719 18.914062 C 15.855469 18.707031 15.566406 18.667969 15.359375 18.824219 L 14.472656 19.496094 C 14.269531 19.652344 14.230469 19.941406 14.382812 20.148438 C 14.539062 20.355469 14.832031 20.394531 15.039062 20.238281 L 15.921875 19.566406 C 16.128906 19.410156 16.167969 19.117188 16.011719 18.914062 Z M 13.09375 21.675781 C 12.871094 21.546875 12.585938 21.621094 12.457031 21.84375 L 11.902344 22.808594 C 11.773438 23.03125 11.851562 23.316406 12.074219 23.445312 C 12.148438 23.488281 12.226562 23.507812 12.304688 23.507812 C 12.46875 23.507812 12.625 23.421875 12.710938 23.273438 L 13.265625 22.308594 C 13.394531 22.085938 13.316406 21.800781 13.09375 21.675781 Z M 11.496094 25.390625 C 11.246094 25.335938 10.996094 25.496094 10.941406 25.746094 L 10.699219 26.832031 C 10.644531 27.082031 10.804688 27.332031 11.054688 27.386719 C 11.304688 27.445312 11.554688 27.285156 11.609375 27.035156 L 11.851562 25.949219 C 11.90625 25.695312 11.746094 25.445312 11.496094 25.390625 Z M 10.566406 29.714844 L 10.699219 30.820312 C 10.726562 31.074219 10.960938 31.257812 11.214844 31.230469 C 11.453125 31.203125 11.625 31 11.625 30.765625 C 11.625 30.746094 11.625 30.730469 11.625 30.710938 L 11.492188 29.605469 C 11.460938 29.351562 11.230469 29.167969 10.976562 29.199219 C 10.71875 29.226562 10.539062 29.460938 10.566406 29.714844 Z M 11.234375 33.671875 L 11.5625 34.734375 C 11.640625 34.980469 11.902344 35.117188 12.144531 35.042969 C 12.390625 34.964844 12.53125 34.707031 12.453125 34.460938 L 12.125 33.398438 C 12.050781 33.152344 11.789062 33.011719 11.542969 33.089844 C 11.34375 33.152344 11.214844 33.335938 11.214844 33.535156 C 11.214844 33.578125 11.222656 33.625 11.234375 33.671875 Z M 30.941406 32.53125 C 30.554688 34.429688 29.90625 36.21875 28.96875 37.886719 C 28.917969 37.984375 28.925781 38.023438 29.011719 38.082031 C 29.28125 38.277344 29.378906 38.328125 29.648438 38.527344 C 29.863281 38.683594 29.917969 39 29.769531 39.230469 L 28.554688 41.121094 C 28.410156 41.351562 28.113281 41.40625 27.894531 41.25 C 27.613281 41.039062 27.332031 40.832031 27.050781 40.625 C 26.132812 39.945312 25.378906 39.410156 24.460938 38.730469 C 24.242188 38.570312 24.1875 38.253906 24.339844 38.023438 L 25.582031 36.148438 C 25.730469 35.917969 26.03125 35.867188 26.242188 36.035156 C 26.242188 36.035156 26.246094 36.035156 26.246094 36.039062 C 26.328125 36.105469 26.371094 36.117188 26.421875 35.996094 C 26.640625 35.496094 27.914062 31.152344 27.71875 28.816406 C 27.609375 27.519531 27.363281 26.265625 26.851562 25.078125 C 26.234375 23.652344 25.335938 22.46875 24.089844 21.617188 C 23.378906 21.132812 22.617188 20.785156 21.789062 20.601562 C 21.4375 20.523438 21.082031 20.457031 20.730469 20.441406 C 20.582031 20.433594 20.4375 20.433594 20.289062 20.433594 C 20.144531 20.433594 19.996094 20.433594 19.851562 20.441406 C 19.496094 20.457031 19.140625 20.523438 18.792969 20.601562 C 17.960938 20.785156 17.199219 21.132812 16.488281 21.617188 C 15.242188 22.46875 14.347656 23.652344 13.726562 25.078125 C 13.214844 26.265625 12.96875 27.519531 12.859375 28.816406 C 12.664062 31.152344 13.9375 35.496094 14.15625 35.996094 C 14.207031 36.117188 14.25 36.105469 14.332031 36.039062 C 14.335938 36.035156 14.335938 36.035156 14.335938 36.035156 C 14.546875 35.867188 14.847656 35.917969 14.996094 36.148438 L 16.238281 38.023438 C 16.390625 38.253906 16.335938 38.570312 16.121094 38.730469 C 15.199219 39.410156 14.445312 39.945312 13.527344 40.625 C 13.246094 40.832031 12.964844 41.039062 12.683594 41.25 C 12.46875 41.40625 12.171875 41.351562 12.023438 41.121094 L 10.808594 39.230469 C 10.660156 39 10.714844 38.683594 10.929688 38.527344 C 11.199219 38.328125 11.300781 38.277344 11.566406 38.082031 C 11.652344 38.023438 11.660156 37.984375 11.609375 37.886719 C 10.671875 36.21875 10.023438 34.429688 9.636719 32.53125 C 9.332031 31.046875 9.199219 29.550781 9.253906 28.039062 C 9.347656 25.570312 9.914062 23.246094 11.128906 21.125 C 12.210938 19.226562 13.671875 17.753906 15.535156 16.753906 C 16.566406 16.203125 17.65625 15.84375 18.800781 15.683594 C 19.304688 15.613281 19.800781 15.578125 20.289062 15.574219 C 20.777344 15.578125 21.273438 15.613281 21.777344 15.683594 C 22.921875 15.84375 24.011719 16.203125 25.042969 16.753906 C 26.90625 17.753906 28.367188 19.226562 29.453125 21.125 C 30.664062 23.246094 31.230469 25.570312 31.324219 28.039062 C 31.378906 29.550781 31.246094 31.046875 30.941406 32.53125 " fill-opacity="1" fill-rule="nonzero"/></g></svg>