<svg xmlns="http://www.w3.org/2000/svg" xmlns:xlink="http://www.w3.org/1999/xlink" width="393" zoomAndPan="magnify" viewBox="0 0 294.75 449.249995" height="599" preserveAspectRatio="xMidYMid meet" version="1.0"><defs><clipPath id="2fd95592be"><path d="M 75.082031 75.304688 L 218.964844 75.304688 L 218.964844 373.558594 L 75.082031 373.558594 Z M 75.082031 75.304688 " clip-rule="nonzero"/></clipPath><clipPath id="91a8b14ce5"><path d="M 191.984375 75.304688 L 102.058594 75.304688 C 102.058594 90.132812 90.054688 102.25 75.082031 102.25 L 75.082031 346.613281 C 89.925781 346.613281 102.058594 358.605469 102.058594 373.558594 L 191.984375 373.558594 C 191.984375 358.734375 203.988281 346.613281 218.960938 346.613281 L 218.960938 102.25 C 204.117188 102.25 191.984375 90.261719 191.984375 75.304688 " clip-rule="nonzero"/></clipPath><clipPath id="0d40d1b9c5"><path d="M 75.085938 78.542969 L 218.964844 78.542969 L 218.964844 224.671875 L 75.085938 224.671875 Z M 75.085938 78.542969 " clip-rule="nonzero"/></clipPath><clipPath id="08aaa13871"><path d="M 123.070312 85.023438 C 130.421875 81.113281 138.832031 78.542969 147.0625 78.542969 C 155.292969 78.542969 163.210938 80.746094 170.507812 84.65625 C 170.664062 84.78125 170.820312 84.78125 170.976562 84.902344 C 198.382812 100.554688 218.570312 141.882812 218.960938 187.292969 L 218.960938 224.671875 L 75.085938 224.671875 L 75.085938 187.320312 C 75.472656 141.640625 95.351562 100.308594 123.070312 85.023438 " clip-rule="nonzero"/></clipPath><clipPath id="99fe24e1fe"><path d="M 75.058594 227.710938 L 218.9375 227.710938 L 218.9375 373.839844 L 75.058594 373.839844 Z M 75.058594 227.710938 " clip-rule="nonzero"/></clipPath><clipPath id="5235889230"><path d="M 170.953125 367.359375 C 163.597656 371.273438 155.191406 373.839844 146.960938 373.839844 C 138.730469 373.839844 130.808594 371.640625 123.511719 367.726562 C 123.355469 367.605469 123.199219 367.605469 123.046875 367.484375 C 95.636719 351.832031 75.449219 310.503906 75.0625 265.09375 L 75.0625 227.710938 L 218.9375 227.710938 L 218.9375 265.066406 C 218.546875 310.746094 198.671875 352.078125 170.953125 367.359375 " clip-rule="nonzero"/></clipPath><clipPath id="bc0ee78daa"><path d="M 78 105.554688 L 215.886719 105.554688 L 215.886719 199.976562 L 78 199.976562 Z M 78 105.554688 " clip-rule="nonzero"/></clipPath><clipPath id="c2ef76aec6"><path d="M 78 253.617188 L 215.886719 253.617188 L 215.886719 348.039062 L 78 348.039062 Z M 78 253.617188 " clip-rule="nonzero"/></clipPath></defs><g clip-path="url(#2fd95592be)"><g clip-path="url(#91a8b14ce5)"><path stroke-linecap="butt" transform="matrix(0.749507, 0, 0, 0.74868, 75.082947, 75.304872)" fill="none" stroke-linejoin="miter" d="M 155.9711 -0.000246925 L 35.991188 -0.000246925 C 35.991188 19.805457 19.975452 35.990203 -0.00122204 35.990203 L -0.00122204 362.382571 C 19.803464 362.382571 35.991188 378.400356 35.991188 398.373021 L 155.9711 398.373021 C 155.9711 378.572534 171.986837 362.382571 191.96351 362.382571 L 191.96351 35.990203 C 172.158825 35.990203 155.9711 19.977635 155.9711 -0.000246925 " stroke="#000000" stroke-width="8" stroke-opacity="1" stroke-miterlimit="4"/></g></g><g clip-path="url(#0d40d1b9c5)"><g clip-path="url(#08aaa13871)"><path stroke-linecap="butt" transform="matrix(0.749507, 0, 0, 0.749926, 75.0853, 78.543632)" fill="none" stroke-linejoin="miter" d="M 64.022096 8.640596 C 73.830626 3.426538 85.051543 -0.000883957 96.032719 -0.000883957 C 107.013895 -0.000883957 117.57813 2.936907 127.313696 8.150964 C 127.522166 8.317647 127.730637 8.317647 127.939107 8.479121 C 164.504807 29.350977 191.439177 84.460595 191.960353 145.013459 L 191.960353 194.85693 L 0.000850492 194.85693 L 0.000850492 145.049921 C 0.516815 84.137646 27.039455 29.02282 64.022096 8.640596 " stroke="#000000" stroke-width="2" stroke-opacity="1" stroke-miterlimit="4"/></g></g><g clip-path="url(#99fe24e1fe)"><g clip-path="url(#5235889230)"><path stroke-linecap="butt" transform="matrix(-0.749507, -0.000000000000000092, 0.000000000000000092, -0.749926, 218.935655, 373.841624)" fill="none" stroke-linejoin="miter" d="M 64.018784 8.643853 C 73.832526 3.424587 85.048231 0.00237373 96.029407 0.00237373 C 107.010583 0.00237373 117.58003 2.934955 127.315596 8.154222 C 127.524066 8.315696 127.732537 8.315696 127.935795 8.47717 C 164.506707 29.349026 191.441077 84.458644 191.957041 145.011508 L 191.957041 194.860188 L -0.00246135 194.860188 L -0.00246135 145.047969 C 0.518715 84.135695 27.036144 29.020869 64.018784 8.643853 " stroke="#000000" stroke-width="2" stroke-opacity="1" stroke-miterlimit="4"/></g></g><g clip-path="url(#bc0ee78daa)"><path stroke-linecap="butt" transform="matrix(0.748686, 0, 0, 0.749292, 78.000453, 105.554275)" fill="none" stroke-linejoin="miter" d="M -0.000605323 0.000550612 L 184.171113 0.000550612 L 184.171113 126.01532 L -0.000605323 126.01532 L -0.000605323 0.000550612 " stroke="#000000" stroke-width="8" stroke-opacity="1" stroke-miterlimit="4"/></g><g clip-path="url(#c2ef76aec6)"><path stroke-linecap="butt" transform="matrix(0.748686, 0, 0, 0.749292, 78.000453, 253.616187)" fill="none" stroke-linejoin="miter" d="M -0.000605323 0.00133542 L 184.171113 0.00133542 L 184.171113 126.016105 L -0.000605323 126.016105 L -0.000605323 0.00133542 " stroke="#000000" stroke-width="8" stroke-opacity="1" stroke-miterlimit="4"/></g></svg>