<svg xmlns="http://www.w3.org/2000/svg" xmlns:xlink="http://www.w3.org/1999/xlink" width="1080" zoomAndPan="magnify" viewBox="0 0 810 1439.999935" height="1920" preserveAspectRatio="xMidYMid meet" version="1.0"><defs><clipPath id="d2df1f105f"><path d="M 421 220.667969 L 509 220.667969 L 509 669 L 421 669 Z M 421 220.667969 " clip-rule="nonzero"/></clipPath><clipPath id="d22e16d3f6"><path d="M 405.003906 324 L 409 324 L 409 336 L 405.003906 336 Z M 405.003906 324 " clip-rule="nonzero"/></clipPath></defs><g clip-path="url(#d2df1f105f)"><path fill="#d9d9d9" d="M 459.09375 325.554688 L 459.09375 315.890625 C 458.644531 315.910156 458.195312 315.933594 457.742188 315.953125 C 458.074219 318.3125 458.40625 320.675781 459.09375 325.554688 M 451.171875 282.070312 C 451.792969 281.914062 452.417969 281.761719 453.039062 281.605469 C 452.9375 279.960938 453.109375 278.230469 452.628906 276.707031 C 452.328125 275.75 451.046875 275.101562 450.207031 274.3125 C 449.695312 274.632812 449.1875 274.949219 448.679688 275.265625 C 449.507812 277.535156 450.339844 279.800781 451.171875 282.070312 M 450.414062 373.226562 C 446.691406 382.328125 446.691406 382.328125 452.324219 386.429688 C 451.625 381.605469 451.019531 377.417969 450.414062 373.226562 M 469.898438 625.710938 C 474.347656 628.175781 477.40625 629.871094 481.703125 632.246094 C 481.996094 627.578125 482.167969 624.878906 482.34375 622.121094 C 478.382812 623.265625 475.144531 624.199219 469.898438 625.710938 M 450.257812 294.546875 C 449.773438 302.304688 450.324219 304.285156 454.4375 309.492188 C 455.308594 299.289062 455.308594 299.289062 450.257812 294.546875 M 454.300781 570.035156 C 455.296875 561.222656 459.148438 552.40625 454.507812 543.601562 C 453.222656 552.414062 450.136719 561.226562 454.300781 570.035156 M 462.355469 565.242188 C 460.710938 565.589844 460.078125 565.582031 460.027344 565.753906 C 456.039062 578.824219 458.46875 591.925781 460.101562 604.984375 C 460.226562 605.972656 462.792969 606.65625 464.226562 607.484375 C 464.898438 605.707031 466.640625 602.890625 466.082031 602.316406 C 460.625 596.710938 462.628906 589.828125 462.402344 583.382812 C 462.191406 577.527344 462.355469 571.65625 462.355469 565.242188 M 448.429688 396.175781 C 447.800781 399.335938 446.988281 401.589844 446.960938 403.859375 C 446.855469 412.351562 447.535156 420.886719 446.925781 429.332031 C 446.164062 439.949219 447.257812 449.488281 456.917969 456.34375 C 458.4375 444.566406 455.753906 433.523438 449.839844 421.011719 C 453.238281 423.679688 454.773438 424.882812 456.382812 426.144531 C 459.695312 419.648438 454.1875 417.625 451.203125 414.871094 C 452.890625 402.320312 452.890625 402.320312 448.429688 396.175781 M 426.546875 269.433594 C 427.972656 268.691406 430.71875 267.664062 430.628906 267.25 C 428.15625 255.800781 433.464844 243.648438 427.535156 232.496094 C 427.011719 231.515625 427.605469 229.613281 428.214844 228.410156 C 432.046875 220.855469 430.964844 212.273438 433.320312 204.386719 C 434.023438 202.039062 432.472656 199.023438 431.738281 195.191406 C 428.128906 197.347656 425.820312 198.726562 423.511719 200.109375 C 423 199.8125 422.492188 199.519531 421.980469 199.226562 C 424.410156 194.378906 426.839844 189.535156 429.96875 183.292969 C 431.929688 188.328125 433.285156 191.816406 434.644531 195.304688 C 438.757812 187.566406 440.566406 179.792969 439.765625 171.71875 C 447.28125 170.804688 447.253906 170.085938 450.730469 185.199219 C 453.523438 179.664062 455.820312 175.113281 458.113281 170.5625 C 458.933594 170.851562 459.75 171.136719 460.566406 171.425781 C 459.039062 176.347656 456.882812 181.179688 456.148438 186.21875 C 455.3125 191.9375 454.023438 198.582031 456.113281 203.460938 C 458.226562 208.402344 451.574219 214.804688 459.125 218.230469 C 470.726562 206.582031 466.910156 191.078125 469.558594 176.441406 C 471.644531 177.925781 473.011719 178.894531 474.40625 179.890625 C 475.941406 177.96875 477.472656 176.050781 479.378906 173.660156 C 480.875 176.015625 482 177.789062 483.257812 179.773438 C 490.152344 172.703125 485.425781 162.863281 489.265625 154.378906 C 496.429688 164.832031 491.285156 176.070312 494.484375 187.617188 C 498.367188 177.964844 501.820312 169.394531 505.265625 160.820312 C 505.589844 160.886719 505.910156 160.953125 506.234375 161.019531 C 505.777344 169.527344 505.089844 178.035156 504.9375 186.550781 C 504.796875 194.3125 505.441406 202.085938 505.382812 209.851562 C 505.269531 225.367188 504.355469 240.898438 504.824219 256.386719 C 505.1875 268.46875 507.15625 280.5 508.382812 292.554688 C 508.570312 294.378906 508.777344 296.222656 508.691406 298.046875 C 508.113281 310.386719 506.789062 322.738281 507 335.0625 C 507.273438 350.828125 506.167969 366.507812 507.636719 382.417969 C 509.265625 400.042969 506.46875 418.082031 505.609375 435.941406 C 505.558594 437.035156 505.53125 438.148438 505.648438 439.234375 C 507.902344 459.644531 504.355469 479.675781 501.730469 499.765625 C 500.539062 508.914062 499.421875 518.089844 497.675781 527.136719 C 496.828125 531.535156 496.976562 536.640625 491.550781 539.257812 C 488.324219 540.8125 488.640625 544.289062 490.636719 546.945312 C 497.007812 555.425781 495.460938 565.035156 494.996094 574.554688 C 494.816406 578.175781 494.945312 581.824219 495.15625 585.449219 C 495.726562 595.289062 495.773438 595.285156 487.5625 598.277344 C 488.320312 607.984375 489.898438 617.421875 489.558594 626.789062 C 489.183594 637.128906 485.046875 645.742188 471.96875 646.402344 C 472.46875 651.886719 472.816406 656.589844 473.34375 661.277344 C 473.871094 665.925781 471.464844 668.734375 467.273438 668.625 C 463.398438 668.523438 461.71875 665.097656 462.308594 661.378906 C 463.484375 653.945312 465.226562 646.597656 466.308594 639.152344 C 466.992188 634.480469 466.902344 629.699219 467.195312 624.292969 C 461.984375 628.085938 461.941406 628.082031 460.445312 643.4375 C 459.785156 650.210938 459.351562 657.011719 458.816406 663.796875 C 457.921875 663.828125 457.03125 663.859375 456.136719 663.890625 C 455.84375 656.996094 455.664062 650.09375 455.222656 643.207031 C 454.785156 636.339844 454.082031 629.492188 453.492188 622.636719 L 451.15625 622.570312 C 450.554688 634.6875 449.953125 646.800781 449.308594 659.871094 C 444.722656 657.09375 443.886719 653.429688 444.160156 649.410156 C 444.921875 638.285156 444.71875 637.980469 434.046875 638.285156 C 433.539062 629.460938 440.75 636.460938 443.574219 633.300781 C 443.769531 630.644531 444.007812 627.40625 444.265625 623.964844 C 433.246094 618.558594 433.386719 608.136719 433.742188 598.421875 C 434.609375 574.863281 436.441406 551.339844 437.625 527.789062 C 438.332031 513.800781 438.972656 499.78125 438.90625 485.777344 C 438.753906 453.289062 438.808594 420.777344 437.539062 388.320312 C 436.433594 360.019531 433.585938 331.785156 431.609375 303.515625 C 431.074219 295.808594 431.246094 288.035156 430.410156 280.367188 C 429.996094 276.554688 428.039062 272.910156 426.78125 269.191406 Z M 426.546875 269.433594 " fill-opacity="1" fill-rule="nonzero"/></g><path fill="#d9d9d9" d="M 419.378906 602.804688 C 420.792969 604.398438 422.207031 605.992188 424.667969 608.765625 C 422.878906 609.984375 421.09375 611.207031 418.980469 612.644531 C 420.417969 615.40625 421.851562 618.160156 423.773438 621.847656 C 420.707031 621.664062 418.691406 621.542969 417.210938 621.453125 L 417.210938 652.390625 C 409.0625 644.132812 412.632812 634.566406 409.984375 626.773438 C 406.550781 616.664062 418.988281 612.371094 416.929688 603.003906 C 417.746094 602.9375 418.5625 602.871094 419.378906 602.804688 " fill-opacity="1" fill-rule="nonzero"/><path fill="#d9d9d9" d="M 426.78125 269.769531 C 425.703125 269.6875 424.125 270.035156 423.621094 269.453125 C 419.425781 264.589844 414.980469 259.835938 411.570312 254.445312 C 410.007812 251.980469 410.59375 248.15625 412.097656 244.136719 C 416.914062 252.761719 421.734375 261.382812 426.550781 270.011719 C 426.546875 270.011719 426.78125 269.769531 426.78125 269.769531 " fill-opacity="1" fill-rule="nonzero"/><g clip-path="url(#d22e16d3f6)"><path fill="#d9d9d9" d="M 407.277344 335.851562 C 406.519531 332.167969 405.761719 328.480469 405.003906 324.792969 C 410.316406 327.28125 409.015625 331.46875 407.277344 335.851562 " fill-opacity="1" fill-rule="nonzero"/></g><path fill="#d9d9d9" d="M 422.003906 656.714844 C 422.175781 654.335938 422.347656 651.957031 422.519531 649.582031 C 423.007812 649.507812 423.5 649.4375 423.988281 649.363281 C 424.332031 650.785156 424.945312 652.210938 424.929688 653.628906 C 424.917969 654.769531 424.144531 655.90625 423.710938 657.042969 C 423.140625 656.933594 422.570312 656.824219 422.003906 656.714844 " fill-opacity="1" fill-rule="nonzero"/><path fill="#d9d9d9" d="M 437.769531 646.417969 C 437.957031 648.460938 438.144531 650.511719 438.335938 652.554688 C 437.671875 652.667969 437.003906 652.78125 436.339844 652.890625 C 435.898438 650.839844 435.457031 648.789062 435.011719 646.742188 C 435.929688 646.632812 436.851562 646.523438 437.769531 646.417969 " fill-opacity="1" fill-rule="nonzero"/><path fill="#ffffff" d="M 496.148438 607.730469 C 496.234375 609.125 496.398438 610.523438 496.382812 611.917969 C 496.371094 613.261719 496.171875 614.605469 495.230469 615.90625 L 495.230469 607.691406 C 495.535156 607.707031 495.84375 607.71875 496.148438 607.730469 " fill-opacity="1" fill-rule="nonzero"/></svg>