<svg xmlns="http://www.w3.org/2000/svg" xmlns:xlink="http://www.w3.org/1999/xlink" width="55" zoomAndPan="magnify" viewBox="0 0 41.25 56.999998" height="76" preserveAspectRatio="xMidYMid meet" version="1.0"><defs><clipPath id="dbc52cb202"><path d="M 15 2 L 26 2 L 26 55 L 15 55 Z M 15 2 " clip-rule="nonzero"/></clipPath><clipPath id="2de83a604e"><path d="M 19.8125 57.957031 L -8.035156 20.832031 L 20.835938 -0.824219 L 48.683594 36.296875 Z M 19.8125 57.957031 " clip-rule="nonzero"/></clipPath><clipPath id="2bd15a0c05"><path d="M 19.8125 57.957031 L -8.035156 20.832031 L 20.835938 -0.824219 L 48.683594 36.296875 Z M 19.8125 57.957031 " clip-rule="nonzero"/></clipPath></defs><g clip-path="url(#dbc52cb202)"><g clip-path="url(#2de83a604e)"><g clip-path="url(#2bd15a0c05)"><path fill="#000000" d="M 15.25 3.503906 C 15.25 3.503906 15.25 3.507812 15.25 3.507812 C 15.347656 5.78125 15.414062 8.054688 15.421875 10.328125 C 15.425781 11.480469 15.421875 12.628906 15.40625 13.777344 C 15.402344 14.328125 15.386719 14.878906 15.378906 15.429688 C 15.375 15.960938 15.476562 16.4375 15.878906 16.816406 C 16.101562 17.023438 16.371094 17.171875 16.628906 17.324219 C 16.910156 17.492188 17.1875 17.65625 17.46875 17.824219 C 18.035156 18.164062 18.605469 18.496094 19.179688 18.828125 C 19.203125 18.84375 19.230469 18.855469 19.261719 18.863281 C 19.214844 19.953125 19.195312 21.046875 19.230469 22.136719 C 19.25 22.765625 19.28125 23.390625 19.324219 24.019531 C 19.332031 24.125 19.40625 24.175781 19.488281 24.175781 C 19.652344 27.304688 19.808594 30.433594 19.875 33.566406 C 19.945312 36.742188 19.9375 39.914062 19.882812 43.089844 C 19.867188 43.984375 19.839844 44.878906 19.820312 45.777344 C 19.796875 46.601562 19.757812 47.433594 19.757812 48.261719 C 19.75 48.269531 19.742188 48.277344 19.738281 48.289062 C 19.082031 49.410156 18.417969 50.527344 17.789062 51.660156 C 17.671875 51.875 17.535156 52.089844 17.445312 52.316406 C 17.089844 52.339844 16.773438 52.625 16.667969 52.960938 C 16.542969 53.351562 16.683594 53.757812 17 54.015625 C 17.167969 54.152344 17.378906 54.242188 17.597656 54.269531 C 17.609375 54.269531 17.621094 54.265625 17.632812 54.265625 C 17.765625 54.28125 17.910156 54.261719 18.046875 54.257812 C 18.1875 54.253906 18.328125 54.253906 18.46875 54.253906 C 18.773438 54.257812 19.078125 54.261719 19.382812 54.265625 C 19.972656 54.273438 20.5625 54.277344 21.152344 54.273438 C 22.277344 54.257812 23.40625 54.230469 24.523438 54.097656 C 24.558594 54.121094 24.601562 54.128906 24.640625 54.121094 C 25.035156 54.03125 25.335938 53.730469 25.429688 53.339844 C 25.523438 52.964844 25.347656 52.566406 25.039062 52.34375 C 24.929688 52.261719 24.800781 52.203125 24.671875 52.171875 C 24.332031 51.75 24.039062 51.292969 23.738281 50.839844 C 23.347656 50.246094 22.96875 49.640625 22.613281 49.023438 C 22.46875 48.769531 22.328125 48.507812 22.195312 48.246094 C 22.1875 48.230469 22.179688 48.214844 22.167969 48.203125 C 22.253906 45.078125 22.234375 41.953125 22.203125 38.828125 C 22.171875 35.617188 22.132812 32.402344 22.097656 29.191406 C 22.078125 27.46875 22.078125 25.742188 22.03125 24.019531 C 22.082031 23.992188 22.117188 23.941406 22.121094 23.871094 C 22.128906 22.140625 22.113281 20.410156 22.085938 18.683594 C 22.613281 18.476562 23.105469 18.207031 23.582031 17.902344 C 23.851562 17.730469 24.113281 17.550781 24.371094 17.367188 C 24.609375 17.199219 24.855469 17.039062 25.070312 16.847656 C 25.519531 16.457031 25.6875 15.945312 25.742188 15.367188 C 25.796875 14.789062 25.8125 14.203125 25.824219 13.621094 C 25.863281 11.25 25.667969 8.847656 25.136719 6.539062 C 24.839844 5.226562 24.371094 3.914062 23.429688 2.921875 C 23.417969 2.90625 23.402344 2.894531 23.386719 2.886719 C 23.359375 2.867188 23.324219 2.855469 23.289062 2.859375 C 23.136719 2.851562 22.988281 3.019531 23.117188 3.15625 C 23.527344 4.660156 23.519531 6.257812 23.5625 7.804688 C 23.613281 9.5625 23.664062 11.320312 23.71875 13.082031 C 23.734375 13.488281 23.777344 13.910156 23.746094 14.320312 C 23.722656 14.59375 23.617188 14.945312 23.3125 15.027344 C 22.992188 15.113281 22.847656 14.738281 22.800781 14.496094 C 22.722656 14.113281 22.730469 13.707031 22.714844 13.320312 C 22.648438 11.667969 22.671875 10.007812 22.496094 8.363281 C 22.3125 6.632812 21.90625 4.886719 20.996094 3.386719 C 20.9375 3.285156 20.78125 3.28125 20.695312 3.34375 C 20.609375 3.40625 20.597656 3.503906 20.628906 3.59375 C 20.335938 4.988281 20.644531 6.421875 20.878906 7.800781 C 21.148438 9.371094 21.25 10.964844 21.148438 12.558594 C 21.121094 12.953125 21.085938 13.34375 21.039062 13.730469 C 20.996094 14.082031 20.976562 14.488281 20.761719 14.785156 C 20.691406 14.886719 20.59375 14.972656 20.464844 14.957031 C 20.316406 14.9375 20.246094 14.796875 20.203125 14.667969 C 20.085938 14.304688 20.152344 13.886719 20.164062 13.515625 C 20.214844 11.824219 20.171875 10.128906 20.011719 8.449219 C 19.835938 6.644531 19.4375 4.738281 18.085938 3.4375 C 17.890625 3.25 17.632812 3.582031 17.824219 3.769531 C 17.828125 3.773438 17.832031 3.777344 17.835938 3.78125 C 18.457031 6.972656 18.554688 10.25 18.503906 13.492188 C 18.496094 13.851562 18.511719 14.230469 18.390625 14.574219 C 18.300781 14.832031 18.082031 15.121094 17.773438 14.96875 C 17.472656 14.816406 17.40625 14.453125 17.398438 14.148438 C 17.386719 13.769531 17.421875 13.386719 17.429688 13.011719 C 17.453125 11.46875 17.332031 9.929688 17.066406 8.414062 C 16.769531 6.710938 16.296875 5.039062 15.652344 3.433594 C 15.636719 3.328125 15.550781 3.28125 15.460938 3.285156 C 15.457031 3.285156 15.453125 3.285156 15.449219 3.285156 C 15.445312 3.285156 15.441406 3.285156 15.4375 3.289062 C 15.332031 3.300781 15.234375 3.386719 15.25 3.503906 Z M 21.792969 16.910156 C 21.9375 17.246094 21.984375 17.617188 21.929688 17.980469 C 21.902344 18.171875 21.621094 18.128906 21.632812 17.9375 C 21.652344 17.632812 21.589844 17.320312 21.460938 17.039062 C 21.398438 16.902344 21.320312 16.773438 21.222656 16.65625 C 21.175781 16.597656 21.125 16.539062 21.070312 16.488281 C 21.007812 16.425781 20.941406 16.375 20.902344 16.289062 C 20.851562 16.179688 20.960938 16.039062 21.078125 16.066406 C 21.265625 16.105469 21.417969 16.300781 21.527344 16.445312 C 21.636719 16.585938 21.726562 16.746094 21.792969 16.910156 Z M 20.855469 23.066406 C 20.710938 23.109375 20.550781 23.113281 20.410156 23.046875 C 20.371094 23.058594 20.332031 23.058594 20.296875 23.042969 C 20.125 22.960938 20.03125 22.753906 20 22.574219 C 19.976562 22.414062 20 22.234375 20.082031 22.089844 C 20.15625 21.949219 20.277344 21.832031 20.433594 21.777344 C 20.585938 21.726562 20.742188 21.730469 20.890625 21.777344 C 21.1875 21.863281 21.394531 22.140625 21.367188 22.453125 C 21.339844 22.726562 21.117188 22.984375 20.855469 23.066406 Z M 21.082031 52.148438 C 20.488281 52.160156 19.894531 52.175781 19.304688 52.199219 C 19.289062 52.199219 19.277344 52.199219 19.265625 52.199219 C 19.753906 51.132812 20.324219 50.105469 20.976562 49.125 C 21.492188 50.164062 22.066406 51.175781 22.710938 52.140625 C 22.167969 52.136719 21.625 52.140625 21.082031 52.148438 Z M 21.679688 28.601562 C 21.699219 30.210938 21.714844 31.824219 21.730469 33.433594 C 21.761719 36.632812 21.796875 39.835938 21.816406 43.039062 C 21.828125 44.777344 21.835938 46.515625 21.84375 48.257812 C 21.835938 48.285156 21.832031 48.320312 21.84375 48.355469 C 21.84375 48.390625 21.84375 48.421875 21.84375 48.453125 C 21.84375 48.519531 21.890625 48.5625 21.945312 48.582031 C 22.179688 49.058594 22.480469 49.515625 22.765625 49.960938 C 23.152344 50.566406 23.550781 51.164062 23.984375 51.734375 C 24.097656 51.882812 24.210938 52.03125 24.328125 52.175781 C 24.320312 52.179688 24.316406 52.183594 24.308594 52.1875 C 23.910156 52.167969 23.507812 52.15625 23.105469 52.148438 C 22.425781 51 21.78125 49.832031 21.199219 48.632812 C 21.132812 48.5 20.9375 48.441406 20.839844 48.582031 C 20.050781 49.730469 19.367188 50.949219 18.804688 52.222656 C 18.664062 52.226562 18.523438 52.234375 18.382812 52.242188 C 18.242188 52.25 18.097656 52.257812 17.953125 52.265625 C 17.929688 52.265625 17.910156 52.265625 17.886719 52.269531 C 17.941406 52.160156 18 52.050781 18.058594 51.941406 C 18.21875 51.644531 18.382812 51.351562 18.546875 51.054688 C 18.902344 50.429688 19.257812 49.804688 19.617188 49.183594 C 19.765625 48.929688 19.910156 48.675781 20.058594 48.421875 C 20.105469 48.339844 20.074219 48.269531 20.015625 48.230469 C 20.082031 47.511719 20.109375 46.785156 20.140625 46.066406 C 20.175781 45.261719 20.203125 44.460938 20.226562 43.660156 C 20.273438 42.070312 20.296875 40.476562 20.304688 38.886719 C 20.320312 35.714844 20.265625 32.542969 20.136719 29.375 C 20.066406 27.621094 19.972656 25.867188 19.871094 24.113281 C 19.898438 24.101562 19.925781 24.085938 19.957031 24.074219 C 20.046875 24.03125 20.136719 23.996094 20.234375 23.964844 C 20.410156 23.910156 20.59375 23.875 20.777344 23.863281 C 20.964844 23.847656 21.148438 23.859375 21.332031 23.886719 C 21.433594 23.902344 21.539062 23.917969 21.640625 23.945312 C 21.628906 25.496094 21.664062 27.050781 21.679688 28.601562 Z M 21.679688 28.601562 " fill-opacity="1" fill-rule="nonzero"/></g></g></g></svg>