<svg xmlns="http://www.w3.org/2000/svg" xmlns:xlink="http://www.w3.org/1999/xlink" width="55" zoomAndPan="magnify" viewBox="0 0 41.25 56.999998" height="76" preserveAspectRatio="xMidYMid meet" version="1.0"><defs><clipPath id="11d804ee32"><path d="M 6.707031 10.269531 L 33.964844 10.269531 L 33.964844 46.945312 L 6.707031 46.945312 Z M 6.707031 10.269531 " clip-rule="nonzero"/></clipPath></defs><path fill="#000000" d="M 30.824219 40.863281 C 30.359375 40.863281 29.976562 41.234375 29.976562 41.703125 C 29.976562 42.171875 30.359375 42.550781 30.824219 42.550781 C 31.289062 42.550781 31.664062 42.171875 31.664062 41.703125 C 31.664062 41.234375 31.289062 40.863281 30.824219 40.863281 Z M 30.824219 40.863281 " fill-opacity="1" fill-rule="nonzero"/><g clip-path="url(#11d804ee32)"><path fill="#000000" d="M 70.6875 36.539062 L 61.027344 3.234375 L 61.027344 1.082031 C 61.027344 0.0546875 60.191406 -0.78125 59.164062 -0.78125 L 59.148438 -0.78125 L 59.148438 -2.601562 C 59.148438 -2.898438 58.902344 -3.144531 58.605469 -3.144531 L 54.851562 -3.144531 C 54.550781 -3.144531 54.308594 -2.898438 54.308594 -2.601562 L 54.308594 -0.472656 C 53.761719 -0.390625 53.214844 -0.289062 52.671875 -0.148438 C 51.332031 0.207031 50.398438 1.4375 50.398438 2.84375 C 50.398438 2.933594 50.414062 3.035156 50.425781 3.132812 L 29.601562 27.972656 L 21.390625 24.730469 L 19.746094 23.988281 C 20.273438 23.519531 20.839844 22.757812 20.839844 21.613281 C 20.832031 19.660156 20.539062 17.746094 18.460938 16.949219 C 16.507812 16.207031 12.484375 17.226562 11.539062 18.425781 C 11.15625 18.902344 11.125 19.570312 11.191406 20.132812 L 9.464844 19.359375 C 9.320312 19.292969 9.152344 19.292969 9.007812 19.363281 C 8.863281 19.433594 8.757812 19.566406 8.71875 19.71875 C 8.695312 19.804688 8.203125 21.8125 8.511719 23.933594 L 8.894531 39.3125 L 7.335938 39.3125 C 7.035156 39.3125 6.792969 39.554688 6.792969 39.855469 L 6.792969 43.550781 C 6.792969 43.851562 7.035156 44.09375 7.335938 44.09375 L 26.195312 44.09375 C 27.082031 45.828125 28.851562 46.933594 30.824219 46.933594 C 32.792969 46.933594 34.5625 45.828125 35.453125 44.09375 L 65.277344 44.09375 C 66.164062 45.828125 67.933594 46.933594 69.90625 46.933594 C 72.785156 46.933594 75.128906 44.589844 75.128906 41.703125 C 75.128906 39.109375 73.207031 36.917969 70.6875 36.539062 Z M 35.875 40.398438 L 38.117188 40.398438 C 38.117188 40.398438 38.121094 40.398438 38.121094 40.398438 L 49.382812 40.398438 C 49.382812 40.398438 49.382812 40.398438 49.386719 40.398438 L 64.855469 40.398438 C 64.746094 40.824219 64.683594 41.257812 64.683594 41.703125 C 64.683594 42.148438 64.746094 42.582031 64.855469 43.007812 L 35.875 43.007812 C 35.984375 42.582031 36.046875 42.148438 36.046875 41.703125 C 36.046875 41.257812 35.984375 40.824219 35.875 40.398438 Z M 30.058594 29.324219 L 40.226562 33.339844 L 39.402344 35.328125 L 29.21875 31.304688 Z M 40.203125 36.238281 C 40.203125 36.234375 40.207031 36.234375 40.207031 36.230469 C 40.207031 36.230469 40.207031 36.226562 40.207031 36.226562 L 41.441406 33.238281 C 41.441406 33.238281 41.445312 33.238281 41.445312 33.238281 C 41.445312 33.238281 41.445312 33.238281 41.445312 33.234375 L 53.597656 3.855469 L 54.308594 3.855469 L 54.308594 8.539062 L 41.578125 39.3125 L 38.929688 39.3125 Z M 58.0625 39.3125 L 55.394531 39.3125 L 55.394531 38.519531 C 55.394531 38.519531 55.394531 38.515625 55.394531 38.515625 L 55.394531 3.855469 L 58.0625 3.855469 Z M 49.488281 39.3125 L 43.699219 37.027344 L 44.523438 35.039062 L 54.308594 38.898438 L 54.308594 39.3125 Z M 54.308594 37.734375 L 44.9375 34.035156 L 54.308594 11.375 Z M 43.285156 38.03125 L 46.53125 39.3125 L 42.753906 39.3125 Z M 65.273438 39.3125 L 59.144531 39.3125 L 59.144531 14.480469 L 66.394531 37.847656 C 65.9375 38.265625 65.558594 38.757812 65.273438 39.3125 Z M 67.320312 37.167969 L 59.144531 10.816406 L 59.144531 3.855469 L 60.078125 3.855469 L 69.546875 36.5 C 68.753906 36.558594 67.996094 36.78125 67.320312 37.167969 Z M 58.0625 -2.058594 L 58.0625 -0.765625 C 57.226562 -0.746094 56.316406 -0.707031 55.394531 -0.613281 L 55.394531 -2.058594 Z M 51.238281 3.855469 L 52.421875 3.855469 L 40.640625 32.335938 L 30.664062 28.394531 Z M 9.644531 20.628906 L 20.488281 25.515625 L 19.59375 27.777344 C 18.527344 28.019531 14.355469 28.800781 11.546875 27.117188 C 10.480469 26.480469 9.824219 25.367188 9.589844 23.8125 C 9.402344 22.578125 9.53125 21.351562 9.644531 20.628906 Z M 9.671875 26.882812 C 10.035156 27.351562 10.472656 27.742188 10.988281 28.050781 C 12.5625 28.992188 14.445312 29.261719 16.097656 29.261719 C 17.914062 29.261719 19.445312 28.933594 19.957031 28.808594 L 38.988281 36.332031 L 37.757812 39.3125 L 35.453125 39.3125 C 34.558594 37.578125 32.789062 36.46875 30.824219 36.46875 C 28.855469 36.46875 27.082031 37.578125 26.195312 39.3125 L 9.980469 39.3125 Z M 25.773438 40.398438 C 25.664062 40.824219 25.601562 41.257812 25.601562 41.703125 C 25.601562 42.148438 25.664062 42.582031 25.773438 43.007812 L 9.992188 43.007812 L 9.992188 40.398438 Z M 7.878906 40.398438 L 8.90625 40.398438 L 8.90625 43.007812 L 7.878906 43.007812 Z M 30.824219 45.847656 C 29.164062 45.847656 27.671875 44.863281 27.023438 43.335938 C 26.800781 42.816406 26.6875 42.265625 26.6875 41.703125 C 26.6875 41.140625 26.800781 40.589844 27.023438 40.070312 C 27.671875 38.542969 29.164062 37.558594 30.824219 37.558594 C 32.480469 37.558594 33.972656 38.542969 34.628906 40.070312 C 34.851562 40.589844 34.964844 41.140625 34.964844 41.703125 C 34.964844 42.265625 34.851562 42.816406 34.628906 43.335938 C 34.625 43.335938 34.625 43.339844 34.625 43.339844 C 33.972656 44.863281 32.480469 45.847656 30.824219 45.847656 Z M 69.90625 45.847656 C 68.246094 45.847656 66.753906 44.863281 66.105469 43.339844 C 66.105469 43.335938 66.105469 43.335938 66.105469 43.335938 C 65.882812 42.816406 65.769531 42.265625 65.769531 41.703125 C 65.769531 41.140625 65.882812 40.589844 66.105469 40.070312 C 66.105469 40.070312 66.105469 40.066406 66.105469 40.066406 C 66.378906 39.429688 66.808594 38.871094 67.355469 38.445312 C 68.082031 37.867188 68.964844 37.558594 69.90625 37.558594 C 69.992188 37.558594 70.078125 37.5625 70.164062 37.566406 C 70.183594 37.570312 70.203125 37.574219 70.226562 37.574219 C 72.367188 37.730469 74.046875 39.546875 74.046875 41.703125 C 74.042969 43.988281 72.1875 45.847656 69.90625 45.847656 Z M 69.90625 45.847656 " fill-opacity="1" fill-rule="nonzero"/></g></svg>