<svg xmlns="http://www.w3.org/2000/svg" xmlns:xlink="http://www.w3.org/1999/xlink" width="392" zoomAndPan="magnify" viewBox="0 0 294 293.999989" height="392" preserveAspectRatio="xMidYMid meet" version="1.0"><defs><clipPath id="873b27ae77"><path d="M 75 75 L 219 75 L 219 219 L 75 219 Z M 75 75 " clip-rule="nonzero"/></clipPath><clipPath id="bb365f36b7"><path d="M 204.929688 75 L 89.070312 75 C 89.070312 82.742188 82.808594 89.070312 75 89.070312 L 75 204.929688 C 82.742188 204.929688 89.070312 211.191406 89.070312 219 L 204.929688 219 C 204.929688 211.257812 211.191406 204.929688 219 204.929688 L 219 89.070312 C 211.257812 89.070312 204.929688 82.808594 204.929688 75 " clip-rule="nonzero"/></clipPath><clipPath id="d06ba40dd5"><path d="M 75 75 L 219 75 L 219 219 L 75 219 Z M 75 75 " clip-rule="nonzero"/></clipPath><clipPath id="43173489c2"><path d="M 147 75 C 107.234375 75 75 107.234375 75 147 C 75 186.765625 107.234375 219 147 219 C 186.765625 219 219 186.765625 219 147 C 219 107.234375 186.765625 75 147 75 " clip-rule="nonzero"/></clipPath></defs><g clip-path="url(#873b27ae77)"><g clip-path="url(#bb365f36b7)"><path fill="#d9d9d9" d="M 75 75 L 219 75 L 219 219 L 75 219 Z M 75 75 " fill-opacity="1" fill-rule="nonzero"/><path stroke-linecap="butt" transform="matrix(0.75, 0, 0, 0.75, 75, 74.999994)" fill="none" stroke-linejoin="miter" d="M 173.239598 0.00000807823 L 18.760419 0.00000807823 C 18.760419 10.322926 10.41146 18.760426 0.000000411564 18.760426 L 0.000000411564 173.239605 C 10.322918 173.239605 18.760419 181.588564 18.760419 192.000024 L 173.239598 192.000024 C 173.239598 181.677106 181.588557 173.239605 192.000016 173.239605 L 192.000016 18.760426 C 181.677098 18.760426 173.239598 10.411467 173.239598 0.00000807823 " stroke="#000000" stroke-width="8" stroke-opacity="1" stroke-miterlimit="4"/></g></g><g clip-path="url(#d06ba40dd5)"><g clip-path="url(#43173489c2)"><path fill="#ffffff" d="M 75 75 L 219 75 L 219 219 L 75 219 Z M 75 75 " fill-opacity="1" fill-rule="nonzero"/><path stroke-linecap="butt" transform="matrix(0.75, 0, 0, 0.75, 75, 74.999994)" fill="none" stroke-linejoin="miter" d="M 96.000008 0.00000807823 C 42.979171 0.00000807823 0.000000411564 42.979178 0.000000411564 96.000016 C 0.000000411564 149.020853 42.979171 192.000024 96.000008 192.000024 C 149.020846 192.000024 192.000016 149.020853 192.000016 96.000016 C 192.000016 42.979178 149.020846 0.00000807823 96.000008 0.00000807823 " stroke="#000000" stroke-width="4" stroke-opacity="1" stroke-miterlimit="4"/></g></g></svg>