<svg xmlns="http://www.w3.org/2000/svg" xmlns:xlink="http://www.w3.org/1999/xlink" width="939" zoomAndPan="magnify" viewBox="0 0 704.25 198.749996" height="265" preserveAspectRatio="xMidYMid meet" version="1.0"><defs><clipPath id="073da7fd4b"><path d="M 89.429688 75.480469 L 614 75.480469 L 614 123 L 89.429688 123 Z M 89.429688 75.480469 " clip-rule="nonzero"/></clipPath><clipPath id="436fa981ec"><path d="M 577.511719 75.480469 C 597.367188 75.480469 613.464844 86.210938 613.464844 99.449219 C 613.464844 112.6875 597.367188 123.421875 577.511719 123.421875 L 125.382812 123.421875 C 105.527344 123.421875 89.429688 112.6875 89.429688 99.449219 C 89.429688 86.210938 105.527344 75.480469 125.382812 75.480469 L 577.511719 75.480469 " clip-rule="nonzero"/></clipPath><clipPath id="15729fa96e"><path d="M 89.429688 75.480469 L 613.769531 75.480469 L 613.769531 123.421875 L 89.429688 123.421875 Z M 89.429688 75.480469 " clip-rule="nonzero"/></clipPath><clipPath id="dbcc13aad8"><path d="M 577.792969 75.480469 C 597.660156 75.480469 613.769531 86.214844 613.769531 99.449219 C 613.769531 112.6875 597.660156 123.421875 577.792969 123.421875 L 125.402344 123.421875 C 105.535156 123.421875 89.429688 112.6875 89.429688 99.449219 C 89.429688 86.214844 105.535156 75.480469 125.402344 75.480469 L 577.792969 75.480469 " clip-rule="nonzero"/></clipPath><clipPath id="681dd5d97b"><path d="M 74.972656 75.480469 L 627.777344 75.480469 L 627.777344 123.421875 L 74.972656 123.421875 Z M 74.972656 75.480469 " clip-rule="nonzero"/></clipPath><clipPath id="9759eb9739"><path d="M 613.730469 75.480469 L 89.023438 75.480469 C 89.023438 83.214844 82.769531 89.535156 74.972656 89.535156 L 74.972656 109.367188 C 82.703125 109.367188 89.023438 115.621094 89.023438 123.421875 L 613.730469 123.421875 C 613.730469 115.6875 619.980469 109.367188 627.777344 109.367188 L 627.777344 89.535156 C 620.046875 89.535156 613.730469 83.28125 613.730469 75.480469 " clip-rule="nonzero"/></clipPath></defs><g clip-path="url(#073da7fd4b)"><g clip-path="url(#436fa981ec)"><path fill="#ffffff" d="M 89.429688 75.480469 L 613.019531 75.480469 L 613.019531 122.671875 L 89.429688 122.671875 Z M 89.429688 75.480469 " fill-opacity="1" fill-rule="nonzero"/></g></g><g clip-path="url(#15729fa96e)"><g clip-path="url(#dbcc13aad8)"><path stroke-linecap="butt" transform="matrix(0.749493, 0, 0, 0.749058, 89.428503, 75.481254)" fill="none" stroke-linejoin="miter" d="M 651.593359 -0.00104879 C 678.100872 -0.00104879 699.594577 14.329455 699.594577 31.997486 C 699.594577 49.670731 678.100872 64.001235 651.593359 64.001235 L 47.997587 64.001235 C 21.490074 64.001235 0.00158039 49.670731 0.00158039 31.997486 C 0.00158039 14.329455 21.490074 -0.00104879 47.997587 -0.00104879 L 651.593359 -0.00104879 " stroke="#000000" stroke-width="2" stroke-opacity="1" stroke-miterlimit="4"/></g></g><g clip-path="url(#681dd5d97b)"><g clip-path="url(#9759eb9739)"><path stroke-linecap="butt" transform="matrix(0.748867, 0, 0, 0.749058, 74.973621, 75.481283)" fill="none" stroke-linejoin="miter" d="M 719.428808 -0.00108719 L 18.761419 -0.00108719 C 18.761419 10.324386 10.410267 18.76207 -0.00128767 18.76207 L -0.00128767 45.238043 C 10.321592 45.238043 18.761419 53.587075 18.761419 64.001201 L 719.428808 64.001201 C 719.428808 53.675728 727.774743 45.238043 738.186298 45.238043 L 738.186298 18.76207 C 727.863419 18.76207 719.428808 10.413039 719.428808 -0.00108719 " stroke="#000000" stroke-width="8" stroke-opacity="1" stroke-miterlimit="4"/></g></g></svg>