<svg xmlns="http://www.w3.org/2000/svg" xmlns:xlink="http://www.w3.org/1999/xlink" width="392" zoomAndPan="magnify" viewBox="0 0 294 293.999989" height="392" preserveAspectRatio="xMidYMid meet" version="1.0"><defs><clipPath id="e2af29b977"><path d="M 75 75 L 219 75 L 219 219 L 75 219 Z M 75 75 " clip-rule="nonzero"/></clipPath><clipPath id="2f1171142d"><path d="M 147 75 C 107.234375 75 75 107.234375 75 147 C 75 186.765625 107.234375 219 147 219 C 186.765625 219 219 186.765625 219 147 C 219 107.234375 186.765625 75 147 75 " clip-rule="nonzero"/></clipPath><clipPath id="716c8d58aa"><path d="M 75 75 L 218.890625 75 L 218.890625 218.890625 L 75 218.890625 Z M 75 75 " clip-rule="nonzero"/></clipPath><clipPath id="67f1c9c609"><path d="M 146.945312 75 C 107.210938 75 75 107.210938 75 146.945312 C 75 186.679688 107.210938 218.890625 146.945312 218.890625 C 186.679688 218.890625 218.890625 186.679688 218.890625 146.945312 C 218.890625 107.210938 186.679688 75 146.945312 75 " clip-rule="nonzero"/></clipPath><clipPath id="5684838fc1"><path d="M 75 75 L 218.890625 75 L 218.890625 218.890625 L 75 218.890625 Z M 75 75 " clip-rule="nonzero"/></clipPath><clipPath id="8686d7aa46"><path d="M 190.5625 75 L 103.328125 75 L 75 103.328125 L 75 190.5625 L 103.328125 218.890625 L 190.5625 218.890625 L 218.890625 190.5625 L 218.890625 103.328125 L 190.5625 75 " clip-rule="nonzero"/></clipPath><clipPath id="e2623ddd51"><path d="M 87 91.4375 L 206.425781 91.4375 L 206.425781 202.234375 L 87 202.234375 Z M 87 91.4375 " clip-rule="nonzero"/></clipPath></defs><g clip-path="url(#e2af29b977)"><g clip-path="url(#2f1171142d)"><path fill="#ffffff" d="M 75 75 L 219 75 L 219 219 L 75 219 Z M 75 75 " fill-opacity="1" fill-rule="nonzero"/></g></g><g clip-path="url(#716c8d58aa)"><g clip-path="url(#67f1c9c609)"><path stroke-linecap="butt" transform="matrix(1.438006, 0, 0, 1.438006, 75, 74.999994)" fill="none" stroke-linejoin="miter" d="M 50.031303 0.00000421325 C 22.399724 0.00000421325 0.000000214654 22.399728 0.000000214654 50.031307 C 0.000000214654 77.662885 22.399724 100.062609 50.031303 100.062609 C 77.662881 100.062609 100.062605 77.662885 100.062605 50.031307 C 100.062605 22.399728 77.662881 0.00000421325 50.031303 0.00000421325 " stroke="#000000" stroke-width="1.04246" stroke-opacity="1" stroke-miterlimit="4"/></g></g><g clip-path="url(#5684838fc1)"><g clip-path="url(#8686d7aa46)"><path stroke-linecap="butt" transform="matrix(1.438006, 0, 0, 1.438006, 75, 74.999994)" fill="none" stroke-linejoin="miter" d="M 80.363017 0.00000421325 L 19.699588 0.00000421325 L 0.000000214654 19.699592 L 0.000000214654 80.363021 L 19.699588 100.062609 L 80.363017 100.062609 L 100.062605 80.363021 L 100.062605 19.699592 L 80.363017 0.00000421325 " stroke="#000000" stroke-width="4.169838" stroke-opacity="1" stroke-miterlimit="4"/></g></g><g clip-path="url(#e2623ddd51)"><path stroke-linecap="butt" transform="matrix(1.432164, 0, 0, 1.434828, 87.00153, 91.439268)" fill="none" stroke-linejoin="miter" d="M -0.00106826 -0.00123207 L 83.387254 -0.00123207 L 83.387254 77.218374 L -0.00106826 77.218374 L -0.00106826 -0.00123207 " stroke="#000000" stroke-width="4.169838" stroke-opacity="1" stroke-miterlimit="4"/></g></svg>