<svg xmlns="http://www.w3.org/2000/svg" xmlns:xlink="http://www.w3.org/1999/xlink" width="992" zoomAndPan="magnify" viewBox="0 0 744 479.999983" height="640" preserveAspectRatio="xMidYMid meet" version="1.0"><defs><g/><clipPath id="a4e5072e50"><path d="M 75.816406 75.335938 L 667 75.335938 L 667 387 L 75.816406 387 Z M 75.816406 75.335938 " clip-rule="nonzero"/></clipPath><clipPath id="bd2c691184"><path d="M 524.835938 75.335938 C 603.304688 75.335938 666.917969 145.0625 666.917969 231.074219 C 666.917969 317.085938 603.304688 386.8125 524.835938 386.8125 L 217.898438 386.8125 C 139.429688 386.8125 75.816406 317.085938 75.816406 231.074219 C 75.816406 145.0625 139.429688 75.335938 217.898438 75.335938 L 524.835938 75.335938 " clip-rule="nonzero"/></clipPath><clipPath id="4266440a4c"><path d="M 75.820312 75.335938 L 666.816406 75.335938 L 666.816406 386.585938 L 75.820312 386.585938 Z M 75.820312 75.335938 " clip-rule="nonzero"/></clipPath><clipPath id="5b5696bead"><path d="M 524.757812 75.335938 C 603.214844 75.335938 666.816406 145.011719 666.816406 230.960938 C 666.816406 316.910156 603.214844 386.585938 524.757812 386.585938 L 217.875 386.585938 C 139.417969 386.585938 75.820312 316.910156 75.820312 230.960938 C 75.820312 145.011719 139.417969 75.335938 217.875 75.335938 L 524.757812 75.335938 " clip-rule="nonzero"/></clipPath><clipPath id="d0255c61c9"><path d="M 87.207031 85.386719 L 655.707031 85.386719 L 655.707031 377.132812 L 87.207031 377.132812 Z M 87.207031 85.386719 " clip-rule="nonzero"/></clipPath><clipPath id="12d105d896"><path d="M 77.300781 75.335938 L 668.296875 75.335938 L 668.296875 386.585938 L 77.300781 386.585938 Z M 77.300781 75.335938 " clip-rule="nonzero"/></clipPath><clipPath id="db8b206aba"><path d="M 637.867188 75.335938 L 107.726562 75.335938 C 107.726562 92.070312 94.1875 105.746094 77.300781 105.746094 L 77.300781 356.175781 C 94.042969 356.175781 107.726562 369.707031 107.726562 386.585938 L 637.867188 386.585938 C 637.867188 369.851562 651.40625 356.175781 668.292969 356.175781 L 668.292969 105.746094 C 651.550781 105.746094 637.867188 92.214844 637.867188 75.335938 " clip-rule="nonzero"/></clipPath></defs><g clip-path="url(#a4e5072e50)"><g clip-path="url(#bd2c691184)"><path fill="#ffffff" d="M 75.816406 75.335938 L 670.78125 75.335938 L 670.78125 386.136719 L 75.816406 386.136719 Z M 75.816406 75.335938 " fill-opacity="1" fill-rule="nonzero"/></g></g><g clip-path="url(#4266440a4c)"><g clip-path="url(#5b5696bead)"><path stroke-linecap="butt" transform="matrix(0.749881, 0, 0, 0.749464, 75.81931, 75.335927)" fill="none" stroke-linejoin="miter" d="M 598.679681 0.0000140195 C 703.305661 0.0000140195 788.121204 92.967523 788.121204 207.648474 C 788.121204 322.329424 703.305661 415.296933 598.679681 415.296933 L 189.437651 415.296933 C 84.811672 415.296933 0.00133724 322.329424 0.00133724 207.648474 C 0.00133724 92.967523 84.811672 0.0000140195 189.437651 0.0000140195 L 598.679681 0.0000140195 " stroke="#000000" stroke-width="2" stroke-opacity="1" stroke-miterlimit="4"/></g></g><g clip-path="url(#d0255c61c9)"><path stroke-linecap="butt" transform="matrix(0.750247, 0, 0, 0.750965, 87.205245, 85.386351)" fill="none" stroke-linejoin="miter" d="M 0.00238108 0.000489679 L 757.752346 0.000489679 L 757.752346 388.495291 L 0.00238108 388.495291 L 0.00238108 0.000489679 " stroke="#000000" stroke-width="8" stroke-opacity="1" stroke-miterlimit="4"/></g><g clip-path="url(#12d105d896)"><g clip-path="url(#db8b206aba)"><path stroke-linecap="butt" transform="matrix(0.749881, 0, 0, 0.749464, 77.29908, 75.335927)" fill="none" stroke-linejoin="miter" d="M 747.542707 0.0000140195 L 40.576412 0.0000140195 C 40.576412 22.328476 22.521465 40.575895 0.00226867 40.575895 L 0.00226867 374.721012 C 22.328726 374.721012 40.576412 392.775586 40.576412 415.296894 L 747.542707 415.296894 C 747.542707 392.968432 765.597654 374.721012 788.116851 374.721012 L 788.116851 40.575895 C 765.790393 40.575895 747.542707 22.521322 747.542707 0.0000140195 " stroke="#000000" stroke-width="8" stroke-opacity="1" stroke-miterlimit="4"/></g></g><g fill="#000000" fill-opacity="1"><g transform="translate(353.327869, 400.614051)"><g><path d="M 4.261719 -0.371094 L 3.898438 -0.457031 L 3.898438 -7.703125 C 4.824219 -7.703125 6.324219 -6.636719 6.324219 -6.636719 L 6.324219 -8.242188 L 0.0585938 -8.242188 L 0.0585938 -6.636719 C 0.0585938 -6.636719 1.511719 -7.703125 2.4375 -7.703125 L 2.4375 -0.457031 L 2.074219 -0.371094 C 1.882812 -0.324219 1.835938 -0.265625 1.835938 -0.132812 L 1.835938 0.0117188 L 4.488281 0.0117188 L 4.488281 -0.132812 C 4.488281 -0.265625 4.441406 -0.324219 4.261719 -0.371094 Z M 4.261719 -0.371094 "/></g></g></g><g fill="#000000" fill-opacity="1"><g transform="translate(359.72388, 400.614051)"><g><path d="M 6.5625 -0.359375 C 6.5625 -0.359375 6.324219 -0.324219 6.121094 -0.695312 C 5.929688 -1.054688 4.308594 -4.054688 4.246094 -4.164062 C 4.96875 -4.667969 5.628906 -5.351562 5.628906 -6.179688 C 5.628906 -7.632812 4.355469 -8.472656 4.355469 -8.472656 L 2.339844 -7.703125 L 2.339844 -8.472656 L 0.300781 -8.148438 L 0.300781 -7.96875 C 0.300781 -7.835938 0.394531 -7.765625 0.625 -7.765625 L 0.875 -7.765625 L 0.875 -0.445312 L 0.539062 -0.371094 C 0.347656 -0.3125 0.300781 -0.265625 0.300781 -0.132812 L 0.300781 0.0117188 L 2.929688 0.0117188 L 2.929688 -0.132812 C 2.929688 -0.265625 2.878906 -0.3125 2.6875 -0.371094 L 2.339844 -0.445312 L 2.339844 -3.40625 C 2.867188 -3.40625 3.121094 -3.289062 3.359375 -2.867188 L 4.90625 0.0117188 L 6.804688 0.0117188 L 6.804688 -0.132812 C 6.804688 -0.265625 6.757812 -0.3125 6.5625 -0.359375 Z M 2.339844 -3.769531 L 2.339844 -7.378906 C 2.339844 -7.378906 3.984375 -7.753906 3.984375 -6 C 3.984375 -4.476562 2.339844 -3.769531 2.339844 -3.769531 Z M 2.339844 -3.769531 "/></g></g></g><g fill="#000000" fill-opacity="1"><g transform="translate(366.539889, 400.614051)"><g><path d="M 7.007812 -0.371094 L 6.648438 -0.457031 C 6.648438 -0.457031 5.519531 -5.398438 4.96875 -7.390625 C 4.703125 -8.351562 2.855469 -8.472656 2.855469 -8.472656 L 0.503906 -0.457031 L 0.144531 -0.371094 C 0.0117188 -0.324219 -0.0117188 -0.265625 -0.0117188 -0.144531 L -0.0117188 0 L 1.871094 0 L 1.871094 -0.144531 C 1.871094 -0.265625 1.835938 -0.324219 1.703125 -0.371094 L 1.355469 -0.433594 L 1.90625 -2.472656 L 4.453125 -3.289062 L 5.171875 -0.421875 L 4.847656 -0.371094 C 4.65625 -0.324219 4.609375 -0.265625 4.609375 -0.144531 L 4.609375 0 L 7.234375 0 L 7.234375 -0.144531 C 7.234375 -0.265625 7.1875 -0.324219 7.007812 -0.371094 Z M 2.101562 -3.15625 L 3.347656 -7.726562 L 4.234375 -4.152344 Z M 2.101562 -3.15625 "/></g></g></g><g fill="#000000" fill-opacity="1"><g transform="translate(373.787901, 400.614051)"><g><path d="M 2.675781 -7.859375 C 2.867188 -7.921875 2.914062 -7.96875 2.914062 -8.101562 L 2.914062 -8.242188 L 0.289062 -8.242188 L 0.289062 -8.101562 C 0.289062 -7.96875 0.335938 -7.921875 0.515625 -7.859375 L 0.863281 -7.789062 L 0.863281 -0.445312 L 0.515625 -0.371094 C 0.335938 -0.324219 0.289062 -0.265625 0.289062 -0.144531 L 0.289062 0 L 2.914062 0 L 2.914062 -0.144531 C 2.914062 -0.265625 2.867188 -0.324219 2.675781 -0.371094 L 2.328125 -0.445312 L 2.328125 -7.789062 Z M 2.675781 -7.859375 "/></g></g></g><g fill="#000000" fill-opacity="1"><g transform="translate(377.003908, 400.614051)"><g><path d="M 4.261719 -0.371094 L 3.898438 -0.457031 L 3.898438 -7.703125 C 4.824219 -7.703125 6.324219 -6.636719 6.324219 -6.636719 L 6.324219 -8.242188 L 0.0585938 -8.242188 L 0.0585938 -6.636719 C 0.0585938 -6.636719 1.511719 -7.703125 2.4375 -7.703125 L 2.4375 -0.457031 L 2.074219 -0.371094 C 1.882812 -0.324219 1.835938 -0.265625 1.835938 -0.132812 L 1.835938 0.0117188 L 4.488281 0.0117188 L 4.488281 -0.132812 C 4.488281 -0.265625 4.441406 -0.324219 4.261719 -0.371094 Z M 4.261719 -0.371094 "/></g></g></g><g fill="#000000" fill-opacity="1"><g transform="translate(383.399919, 400.614051)"><g><path d="M 3.898438 -4.441406 C 3.648438 -4.65625 2.628906 -5.566406 1.980469 -6.109375 C 1.546875 -6.492188 1.859375 -7.691406 2.617188 -7.691406 C 3.421875 -7.691406 3.972656 -6.371094 4.175781 -5.878906 C 4.535156 -6.253906 5.460938 -7.476562 5.460938 -7.476562 C 5.460938 -7.476562 4.523438 -8.519531 3 -8.519531 C 2.746094 -8.519531 1.453125 -8.21875 0.898438 -6.972656 C 0.371094 -5.785156 1.105469 -4.933594 2.292969 -3.816406 C 3.769531 -2.425781 4.800781 -1.714844 4.007812 -0.550781 C 2.425781 -0.550781 1.164062 -2.125 1.164062 -3.636719 C 1.164062 -3.636719 0.289062 -2.53125 0.289062 -1.871094 C 0.289062 -0.613281 1.570312 0.179688 2.6875 0.179688 C 5.0625 0.179688 5.722656 -1.511719 5.554688 -2.425781 C 5.425781 -3.15625 4.738281 -3.695312 3.898438 -4.441406 Z M 3.898438 -4.441406 "/></g></g></g></svg>